<?xml version="1.0" encoding="UTF-8"?>
<svg width="397px" height="177px" viewBox="0 0 397 177" version="1.1" xmlns="http://www.w3.org/2000/svg" xmlns:xlink="http://www.w3.org/1999/xlink">
    <title>编组 11</title>
    <defs>
        <path d="M0,8 L0,151 C5.41083001e-16,155.418278 3.581722,159 8,159 L223,159 C227.418278,159 231,155.418278 231,151 L231,8 C231,3.581722 227.418278,-8.11624501e-16 223,0 L8,0 C3.581722,8.11624501e-16 -5.41083001e-16,3.581722 0,8 Z" id="path-1"></path>
        <filter x="-6.1%" y="-6.3%" width="112.1%" height="117.6%" filterUnits="objectBoundingBox" id="filter-2">
            <feOffset dx="0" dy="4" in="SourceAlpha" result="shadowOffsetOuter1"></feOffset>
            <feGaussianBlur stdDeviation="4" in="shadowOffsetOuter1" result="shadowBlurOuter1"></feGaussianBlur>
            <feColorMatrix values="0 0 0 0 0.168627451   0 0 0 0 0.219607843   0 0 0 0 0.37254902  0 0 0 0.10508632 0" type="matrix" in="shadowBlurOuter1"></feColorMatrix>
        </filter>
        <linearGradient x1="4.17372197%" y1="49.889091%" x2="91.8452024%" y2="50.1045713%" id="linearGradient-3">
            <stop stop-color="#387FAB" offset="0%"></stop>
            <stop stop-color="#78DCA6" offset="97.303868%"></stop>
        </linearGradient>
        <linearGradient x1="96.2627487%" y1="49.6421632%" x2="0%" y2="50.3727857%" id="linearGradient-4">
            <stop stop-color="#8E9BF2" offset="0%"></stop>
            <stop stop-color="#B4C4FF" offset="100%"></stop>
        </linearGradient>
        <linearGradient x1="98.2323328%" y1="45.7117993%" x2="0%" y2="54.2882007%" id="linearGradient-5">
            <stop stop-color="#8E9BF2" offset="2.00502622%"></stop>
            <stop stop-color="#B4C4FF" offset="100%"></stop>
        </linearGradient>
        <linearGradient x1="98.2323328%" y1="45.5882066%" x2="0%" y2="54.4117934%" id="linearGradient-6">
            <stop stop-color="#8E9BF2" offset="2.00502622%"></stop>
            <stop stop-color="#B4C4FF" offset="100%"></stop>
        </linearGradient>
        <linearGradient x1="98.2323328%" y1="49.9985396%" x2="0%" y2="50.0014604%" id="linearGradient-7">
            <stop stop-color="#8E9BF2" offset="2.00502622%"></stop>
            <stop stop-color="#B4C4FF" offset="100%"></stop>
        </linearGradient>
        <linearGradient x1="98.2323328%" y1="44.7619189%" x2="0%" y2="55.2380811%" id="linearGradient-8">
            <stop stop-color="#8E9BF2" offset="2.00502622%"></stop>
            <stop stop-color="#B4C4FF" offset="100%"></stop>
        </linearGradient>
        <linearGradient x1="98.2323328%" y1="47.4730405%" x2="0%" y2="52.5269595%" id="linearGradient-9">
            <stop stop-color="#8E9BF2" offset="2.00502622%"></stop>
            <stop stop-color="#B4C4FF" offset="100%"></stop>
        </linearGradient>
        <linearGradient x1="98.2323328%" y1="47.3160463%" x2="0%" y2="52.6839537%" id="linearGradient-10">
            <stop stop-color="#8E9BF2" offset="2.00502622%"></stop>
            <stop stop-color="#B4C4FF" offset="100%"></stop>
        </linearGradient>
        <linearGradient x1="98.2323328%" y1="46.7567562%" x2="0%" y2="53.2432438%" id="linearGradient-11">
            <stop stop-color="#8E9BF2" offset="2.00502622%"></stop>
            <stop stop-color="#B4C4FF" offset="100%"></stop>
        </linearGradient>
        <linearGradient x1="98.2323328%" y1="45.4061082%" x2="0%" y2="54.5938918%" id="linearGradient-12">
            <stop stop-color="#8E9BF2" offset="2.00502622%"></stop>
            <stop stop-color="#B4C4FF" offset="100%"></stop>
        </linearGradient>
        <linearGradient x1="98.2323328%" y1="47.1703374%" x2="0%" y2="52.8296626%" id="linearGradient-13">
            <stop stop-color="#8E9BF2" offset="2.00502622%"></stop>
            <stop stop-color="#B4C4FF" offset="100%"></stop>
        </linearGradient>
        <path d="M13.6161709,40.0773408 C13.080388,40.1494818 12.5329686,40.1860465 11.9774544,40.1860465 C5.36238231,40.1860465 0,34.9488998 0,28.4888133 C0,23.1370314 3.67964964,18.6247544 8.70255101,17.2338149 C9.49787745,11.5262687 14.5081305,7.12763862 20.5702179,7.12763862 C22.6627562,7.12763862 24.6298232,7.65239093 26.341394,8.57293102 C29.1801832,3.46623119 34.7191361,0 41.0873129,0 C50.3484138,0 57.8554455,7.33170896 57.8554455,16.3760277 C57.8554455,16.9971328 57.8200302,17.609838 57.7507174,18.2131549 C61.4743832,20.1970349 64,24.0546068 64,28.4888133 C64,34.9488998 58.6376177,40.1860465 52.0225456,40.1860465 C51.4665254,40.1860465 50.919612,40.1494818 50.3838291,40.0773408 L13.6161709,40.0773408 Z" id="path-14"></path>
        <filter x="-29.7%" y="-37.3%" width="159.4%" height="194.6%" filterUnits="objectBoundingBox" id="filter-15">
            <feMorphology radius="0.5" operator="dilate" in="SourceAlpha" result="shadowSpreadOuter1"></feMorphology>
            <feOffset dx="0" dy="4" in="shadowSpreadOuter1" result="shadowOffsetOuter1"></feOffset>
            <feGaussianBlur stdDeviation="5.5" in="shadowOffsetOuter1" result="shadowBlurOuter1"></feGaussianBlur>
            <feComposite in="shadowBlurOuter1" in2="SourceAlpha" operator="out" result="shadowBlurOuter1"></feComposite>
            <feColorMatrix values="0 0 0 0 0.387191319   0 0 0 0 0.435589466   0 0 0 0 0.500056612  0 0 0 0.11565778 0" type="matrix" in="shadowBlurOuter1"></feColorMatrix>
        </filter>
        <linearGradient x1="50%" y1="100%" x2="50%" y2="3.061617e-15%" id="linearGradient-16">
            <stop stop-color="#35C98D" offset="0%"></stop>
            <stop stop-color="#37DC85" offset="100%"></stop>
        </linearGradient>
        <rect id="path-17" x="73" y="103" width="48" height="48" rx="8"></rect>
        <filter x="-39.6%" y="-31.2%" width="179.2%" height="179.2%" filterUnits="objectBoundingBox" id="filter-18">
            <feMorphology radius="0.5" operator="dilate" in="SourceAlpha" result="shadowSpreadOuter1"></feMorphology>
            <feOffset dx="0" dy="4" in="shadowSpreadOuter1" result="shadowOffsetOuter1"></feOffset>
            <feGaussianBlur stdDeviation="5.5" in="shadowOffsetOuter1" result="shadowBlurOuter1"></feGaussianBlur>
            <feComposite in="shadowBlurOuter1" in2="SourceAlpha" operator="out" result="shadowBlurOuter1"></feComposite>
            <feColorMatrix values="0 0 0 0 0.387191319   0 0 0 0 0.435589466   0 0 0 0 0.500056612  0 0 0 0.11565778 0" type="matrix" in="shadowBlurOuter1"></feColorMatrix>
        </filter>
        <rect id="path-19" x="281" y="105" width="48" height="48" rx="8"></rect>
        <filter x="-39.6%" y="-31.2%" width="179.2%" height="179.2%" filterUnits="objectBoundingBox" id="filter-20">
            <feMorphology radius="0.5" operator="dilate" in="SourceAlpha" result="shadowSpreadOuter1"></feMorphology>
            <feOffset dx="0" dy="4" in="shadowSpreadOuter1" result="shadowOffsetOuter1"></feOffset>
            <feGaussianBlur stdDeviation="5.5" in="shadowOffsetOuter1" result="shadowBlurOuter1"></feGaussianBlur>
            <feComposite in="shadowBlurOuter1" in2="SourceAlpha" operator="out" result="shadowBlurOuter1"></feComposite>
            <feColorMatrix values="0 0 0 0 0.387191319   0 0 0 0 0.435589466   0 0 0 0 0.500056612  0 0 0 0.11565778 0" type="matrix" in="shadowBlurOuter1"></feColorMatrix>
        </filter>
        <rect id="path-21" x="42" y="35" width="48" height="48" rx="8"></rect>
        <filter x="-39.6%" y="-31.2%" width="179.2%" height="179.2%" filterUnits="objectBoundingBox" id="filter-22">
            <feMorphology radius="0.5" operator="dilate" in="SourceAlpha" result="shadowSpreadOuter1"></feMorphology>
            <feOffset dx="0" dy="4" in="shadowSpreadOuter1" result="shadowOffsetOuter1"></feOffset>
            <feGaussianBlur stdDeviation="5.5" in="shadowOffsetOuter1" result="shadowBlurOuter1"></feGaussianBlur>
            <feComposite in="shadowBlurOuter1" in2="SourceAlpha" operator="out" result="shadowBlurOuter1"></feComposite>
            <feColorMatrix values="0 0 0 0 0.387191319   0 0 0 0 0.435589466   0 0 0 0 0.500056612  0 0 0 0.11565778 0" type="matrix" in="shadowBlurOuter1"></feColorMatrix>
        </filter>
        <linearGradient x1="4.17372197%" y1="4.61975229%" x2="90.2717714%" y2="91.2047358%" id="linearGradient-23">
            <stop stop-color="#909DBF" offset="0%"></stop>
            <stop stop-color="#8392B4" offset="100%"></stop>
        </linearGradient>
        <linearGradient x1="-0.74046103%" y1="74.618445%" x2="95.1256702%" y2="29.3023734%" id="linearGradient-24">
            <stop stop-color="#909DBF" offset="0%"></stop>
            <stop stop-color="#8392B4" offset="100%"></stop>
        </linearGradient>
        <linearGradient x1="100.740461%" y1="25.381555%" x2="4.87432984%" y2="70.6976266%" id="linearGradient-25">
            <stop stop-color="#909DBF" offset="0%"></stop>
            <stop stop-color="#8392B4" offset="100%"></stop>
        </linearGradient>
        <linearGradient x1="4.58564148%" y1="4.61975229%" x2="89.9097798%" y2="91.2047358%" id="linearGradient-26">
            <stop stop-color="#909DBF" offset="0%"></stop>
            <stop stop-color="#8392B4" offset="100%"></stop>
        </linearGradient>
        <linearGradient x1="4.56975352%" y1="4.61975229%" x2="89.923742%" y2="91.2047358%" id="linearGradient-27">
            <stop stop-color="#909DBF" offset="0%"></stop>
            <stop stop-color="#8392B4" offset="100%"></stop>
        </linearGradient>
        <linearGradient x1="4.58564148%" y1="4.61975229%" x2="89.9097798%" y2="91.2047358%" id="linearGradient-28">
            <stop stop-color="#909DBF" offset="0%"></stop>
            <stop stop-color="#8392B4" offset="100%"></stop>
        </linearGradient>
        <linearGradient x1="4.17372197%" y1="35.0475566%" x2="90.2717714%" y2="63.5766442%" id="linearGradient-29">
            <stop stop-color="#909DBF" offset="0%"></stop>
            <stop stop-color="#8392B4" offset="100%"></stop>
        </linearGradient>
        <linearGradient x1="31.932203%" y1="4.61975229%" x2="65.8778374%" y2="91.2047358%" id="linearGradient-30">
            <stop stop-color="#909DBF" offset="0%"></stop>
            <stop stop-color="#8392B4" offset="100%"></stop>
        </linearGradient>
        <linearGradient x1="34.9363932%" y1="4.61975229%" x2="63.2377787%" y2="91.2047358%" id="linearGradient-31">
            <stop stop-color="#909DBF" offset="0%"></stop>
            <stop stop-color="#8392B4" offset="100%"></stop>
        </linearGradient>
        <linearGradient x1="50%" y1="0%" x2="50%" y2="99.6339598%" id="linearGradient-32">
            <stop stop-color="#21C4C1" offset="0%"></stop>
            <stop stop-color="#00B173" stop-opacity="0" offset="99.3498689%"></stop>
        </linearGradient>
        <linearGradient x1="50%" y1="0%" x2="50%" y2="99.6339598%" id="linearGradient-33">
            <stop stop-color="#21C4C1" offset="0%"></stop>
            <stop stop-color="#00B173" stop-opacity="0" offset="99.3498689%"></stop>
        </linearGradient>
        <linearGradient x1="50%" y1="0%" x2="50%" y2="99.6339598%" id="linearGradient-34">
            <stop stop-color="#21C4C1" offset="0%"></stop>
            <stop stop-color="#00B173" stop-opacity="0" offset="99.3498689%"></stop>
        </linearGradient>
        <linearGradient x1="50%" y1="0%" x2="50%" y2="99.6339598%" id="linearGradient-35">
            <stop stop-color="#21C4C1" offset="0%"></stop>
            <stop stop-color="#00B173" stop-opacity="0" offset="99.3498689%"></stop>
        </linearGradient>
    </defs>
    <g id="Page-1" stroke="none" stroke-width="1" fill="none" fill-rule="evenodd">
        <g id="定稿备份-2" transform="translate(-650.000000, -243.000000)">
            <rect fill="#F9FAFB" x="0" y="0" width="1280" height="820"></rect>
            <g id="编组-11" transform="translate(650.000000, 243.000000)">
                <g id="编组-23" transform="translate(82.000000, 4.000000)">
                    <g id="编组">
                        <g id="路径">
                            <use fill="black" fill-opacity="1" filter="url(#filter-2)" xlink:href="#path-1"></use>
                            <use fill="#FFFFFF" fill-rule="evenodd" xlink:href="#path-1"></use>
                        </g>
                        <path d="M0,8 L0,11.4198895 L0,11.4198895 L231,11.4198895 L231,8 C231,3.581722 227.418278,-8.11624501e-16 223,0 L8,0 C3.581722,8.11624501e-16 -5.41083001e-16,3.581722 0,8 Z" id="路径" fill="url(#linearGradient-3)" opacity="0.338662791"></path>
                    </g>
                    <g id="编组-18" opacity="0.600000024" transform="translate(19.000000, 23.000000)" fill-rule="nonzero">
                        <path id="路径-16" d="M101.215386,19.8972868 L101.363806,19.9461116 L109.61,26.029 L133.526569,26.02942 C133.654057,24.3511418 135.056197,23.0290698 136.767123,23.0290698 C138.562049,23.0290698 140.017123,24.4841443 140.017123,26.2790698 C140.017123,28.0739952 138.562049,29.5290698 136.767123,29.5290698 C135.056537,29.5290698 133.654614,28.2075233 133.526645,26.5297202 L109.526679,26.5290698 L109.378258,26.480245 L101.132,20.397 L73.672,20.397 L68.5093353,24.2059056 C69.4030797,25.6321008 69.059659,27.5283741 67.682886,28.5441095 C66.2385078,29.6097215 64.2037587,29.3026709 63.1381466,27.8582927 C62.0725346,26.4139146 62.3795852,24.3791655 63.8239634,23.3135534 C65.2006592,22.2978751 67.1136937,22.5292298 68.212678,23.8038392 L73.4415684,19.9461116 L73.5899885,19.8972868 L101.215386,19.8972868 Z M136.767123,23.5290698 C135.24834,23.5290698 134.017123,24.7602867 134.017123,26.2790698 C134.017123,27.7978528 135.24834,29.0290698 136.767123,29.0290698 C138.285906,29.0290698 139.517123,27.7978528 139.517123,26.2790698 C139.517123,24.7602867 138.285906,23.5290698 136.767123,23.5290698 Z M64.1208036,23.7159039 C62.8986374,24.6175756 62.6388254,26.3392864 63.5404971,27.5614525 C64.4421688,28.7836187 66.1638796,29.0434307 67.3860458,28.141759 C68.6082119,27.2400873 68.8680239,25.5183765 67.9663522,24.2962103 C67.0646805,23.0740442 65.3429697,22.8142322 64.1208036,23.7159039 Z" fill="url(#linearGradient-4)"></path>
                        <path id="路径-17" d="M125.383567,62.9315712 C126.427459,64.391724 126.090013,66.4216536 124.62986,67.4655459 C123.238152,68.4605058 121.328832,68.2005928 120.249022,66.9097463 L112.809675,72.2282145 L112.66428,72.2748421 L82.725,72.274 L74.6720076,78.0320357 C75.5440307,79.4713905 75.1722333,81.3620733 73.7805452,82.3570188 C72.3203924,83.4009111 70.2904627,83.0634653 69.2465704,81.6033125 C68.2026781,80.1431597 68.540124,78.1132301 70.0002768,77.0693378 C71.3918709,76.0744594 73.3009925,76.3342484 74.3808493,77.6248203 L82.4991384,71.8214698 L82.6445334,71.7748421 L112.584,71.774 L119.958129,66.502848 C119.086106,65.0634932 119.457904,63.1728105 120.849592,62.1778649 C122.309745,61.1339726 124.339674,61.4714184 125.383567,62.9315712 Z M70.2910666,77.4760825 C69.0555527,78.359376 68.7700217,80.0770087 69.6533151,81.3125226 C70.5366086,82.5480365 72.2542414,82.8335676 73.4897553,81.9502741 C74.7252692,81.0669806 75.0108003,79.3493479 74.1275068,78.113834 C73.2442133,76.8783201 71.5265805,76.592789 70.2910666,77.4760825 Z M121.140382,62.5846096 C119.904868,63.4679031 119.619337,65.1855358 120.50263,66.4210498 C121.385924,67.6565637 123.103556,67.9420947 124.33907,67.0588013 C125.574584,66.1755078 125.860115,64.457875 124.976822,63.2223611 C124.093528,61.9868472 122.375896,61.7013161 121.140382,62.5846096 Z" fill="url(#linearGradient-5)" opacity="0.5"></path>
                        <path id="路径-18" d="M142.857147,59.3455942 C143.946382,60.7722418 143.672855,62.811768 142.246208,63.9010035 C140.886525,64.9391116 138.970149,64.7393878 137.8503,63.4833165 L104.849393,88.6787835 L104.697682,88.7300778 L25.509,88.73 L13.2481368,98.0930429 C14.1647346,99.5042751 13.8524566,101.405538 12.4927832,102.443639 C11.0661356,103.532875 9.02660938,103.259348 7.93737392,101.8327 C6.84813846,100.406053 7.12166506,98.3665265 8.54831268,97.2772911 C9.90788,96.239271 11.8240464,96.4388729 12.9439356,97.6946588 L25.2745242,88.2813721 L25.4262346,88.2300778 L104.612,88.23 L137.547032,63.0862494 C136.629639,61.6749157 136.941744,59.7730012 138.301737,58.7346554 C139.728385,57.64542 141.767911,57.9189466 142.857147,59.3455942 Z M8.85173349,97.6747025 C7.64457012,98.5963633 7.41312453,100.322116 8.33478531,101.52928 C9.25644608,102.736443 10.982199,102.967889 12.1893624,102.046228 C13.3965258,101.124567 13.6279714,99.398814 12.7063106,98.1916507 C11.7846498,96.9844873 10.0588969,96.7530417 8.85173349,97.6747025 Z M138.605158,59.1320668 C137.397995,60.0537276 137.166549,61.7794805 138.08821,62.9866439 C139.009871,64.1938073 140.735624,64.4252529 141.942787,63.5035921 C143.14995,62.5819313 143.381396,60.8561784 142.459735,59.649015 C141.538074,58.4418516 139.812322,58.210406 138.605158,59.1320668 Z" fill="url(#linearGradient-6)"></path>
                        <path id="路径-19" d="M50.8493151,9.01356589 C52.6442405,9.01356589 54.0993151,10.4686405 54.0993151,12.2635659 C54.0993151,14.0584913 52.6442405,15.5135659 50.8493151,15.5135659 C49.1387287,15.5135659 47.736806,14.1920194 47.608837,12.5142164 L3.24047804,12.5142164 C3.11250905,14.1920194 1.71058639,15.5135659 0,15.5135659 C-1.79492544,15.5135659 -3.25,14.0584913 -3.25,12.2635659 C-3.25,10.4686405 -1.79492544,9.01356589 0,9.01356589 C1.71058639,9.01356589 3.11250905,10.3351124 3.24047804,12.0129154 L47.608837,12.0129154 C47.736806,10.3351124 49.1387287,9.01356589 50.8493151,9.01356589 Z M0,9.51356589 C-1.51878306,9.51356589 -2.75,10.7447828 -2.75,12.2635659 C-2.75,13.782349 -1.51878306,15.0135659 0,15.0135659 C1.51878306,15.0135659 2.75,13.782349 2.75,12.2635659 C2.75,10.7447828 1.51878306,9.51356589 0,9.51356589 Z M50.8493151,9.51356589 C49.330532,9.51356589 48.0993151,10.7447828 48.0993151,12.2635659 C48.0993151,13.782349 49.330532,15.0135659 50.8493151,15.0135659 C52.3680981,15.0135659 53.5993151,13.782349 53.5993151,12.2635659 C53.5993151,10.7447828 52.3680981,9.51356589 50.8493151,9.51356589 Z" fill="url(#linearGradient-7)"></path>
                        <path id="路径-29" d="M34.4315313,29.8438013 C35.7826176,30.8928461 36.0794817,32.7963798 35.1516907,34.2000818 L48.503,44.568 L84.7170641,44.568635 L84.8703853,44.6211695 L92.278606,50.3733933 C93.408587,49.1261294 95.3267742,48.9418523 96.6781067,49.9910882 C98.09585,51.0918884 98.3527831,53.1335714 97.2519829,54.5513147 C96.1511826,55.969058 94.1094997,56.2259912 92.6917563,55.1251909 C91.34067,54.0761462 91.043806,52.1726125 91.971597,50.7689105 L84.63,45.068 L48.4185946,45.068635 L48.2652734,45.0161005 L34.8446816,34.5955989 C33.7147007,35.8428629 31.7965135,36.0271399 30.445181,34.9779041 C29.0274377,33.8771038 28.7705045,31.8354209 29.8713048,30.4176775 C30.972105,28.9999342 33.013788,28.7430011 34.4315313,29.8438013 Z M92.5128111,50.8716067 C91.5813648,52.0712357 91.7987697,53.7988136 92.9983987,54.7302599 C94.1980276,55.6617063 95.9256055,55.4443013 96.8570519,54.2446724 C97.7884983,53.0450434 97.5710933,51.3174655 96.3714643,50.3860191 C95.1718354,49.4545728 93.4442575,49.6719777 92.5128111,50.8716067 Z M30.2662358,30.7243199 C29.3347894,31.9239488 29.5521944,33.6515267 30.7518233,34.5829731 C31.9514523,35.5144195 33.6790302,35.2970145 34.6104766,34.0973855 C35.5419229,32.8977566 35.324518,31.1701787 34.124889,30.2387323 C32.92526,29.307286 31.1976821,29.5246909 30.2662358,30.7243199 Z" fill="url(#linearGradient-8)" opacity="0.5"></path>
                        <path id="路径-30" d="M101.84042,30.6466204 C103.230413,31.6443985 103.598471,33.5362353 102.723147,34.973995 L111.008,40.92 L131.773221,40.9198922 C131.90119,39.2420891 133.303112,37.9205426 135.013699,37.9205426 C136.808624,37.9205426 138.263699,39.3756172 138.263699,41.1705426 C138.263699,42.9654681 136.808624,44.4205426 135.013699,44.4205426 C133.303112,44.4205426 131.90119,43.0989961 131.773221,41.4211931 L110.927927,41.4205426 L110.782142,41.373635 L102.431045,35.3806536 C101.348606,36.6685489 99.4394221,36.9243974 98.0499913,35.9270231 C96.5918483,34.8803252 96.2583062,32.8497505 97.3050041,31.3916075 C98.351702,29.9334646 100.382277,29.5999225 101.84042,30.6466204 Z M135.013699,38.4205426 C133.494916,38.4205426 132.263699,39.6517596 132.263699,41.1705426 C132.263699,42.6893257 133.494916,43.9205426 135.013699,43.9205426 C136.532482,43.9205426 137.763699,42.6893257 137.763699,41.1705426 C137.763699,39.6517596 136.532482,38.4205426 135.013699,38.4205426 Z M97.711189,31.6831789 C96.8255215,32.9169922 97.1077494,34.6351708 98.3415627,35.5208382 C99.575376,36.4065057 101.293555,36.1242777 102.179222,34.8904645 C103.064889,33.6566512 102.782662,31.9384726 101.548848,31.0528052 C100.315035,30.1671377 98.5968564,30.4493657 97.711189,31.6831789 Z" fill="url(#linearGradient-9)"></path>
                        <path id="路径-30备份" d="M61.5493269,96.3717501 C62.9247671,97.3892897 63.2657012,99.2860117 62.3700877,100.711034 L78.644,112.75 L116.869035,112.75035 C116.996523,111.072072 118.398663,109.75 120.109589,109.75 C121.904514,109.75 123.359589,111.205075 123.359589,113 C123.359589,114.794925 121.904514,116.25 120.109589,116.25 C118.399003,116.25 116.99708,114.928454 116.869111,113.25065 L78.5616338,113.25 L78.4129501,113.20098 L62.0731754,101.112396 C60.972564,102.385841 59.059026,102.614808 57.6835498,101.597242 C56.24057,100.529737 55.9361875,98.4945873 57.0036923,97.0516075 C58.0711972,95.6086278 60.1063472,95.3042452 61.5493269,96.3717501 Z M120.109589,110.25 C118.590806,110.25 117.359589,111.481217 117.359589,113 C117.359589,114.518783 118.590806,115.75 120.109589,115.75 C121.628372,115.75 122.859589,114.518783 122.859589,113 C122.859589,111.481217 121.628372,110.25 120.109589,110.25 Z M57.4056533,97.348975 C56.5023799,98.5699579 56.7599344,100.292008 57.9809173,101.195281 C59.2019001,102.098555 60.9239501,101.841 61.8272234,100.620017 C62.7304968,99.3990343 62.4729424,97.6769844 61.2519595,96.773711 C60.0309766,95.8704377 58.3089266,96.1279921 57.4056533,97.348975 Z" fill="url(#linearGradient-10)"></path>
                        <path id="路径-32" d="M102.575342,3.25 C100.780417,3.25 99.3253425,1.79492544 99.3253425,0 C99.3253425,-1.79492544 100.780417,-3.25 102.575342,-3.25 C104.285929,-3.25 105.687852,-1.92845351 105.815821,-0.250650464 L134.253777,-0.25 L134.405476,-0.198714929 L164.172,22.525 L188.759473,22.5251847 C188.887134,20.8470771 190.289196,19.5251938 192,19.5251938 C193.794925,19.5251938 195.25,20.9802684 195.25,22.7751938 C195.25,24.5701192 193.794925,26.0251938 192,26.0251938 C190.289414,26.0251938 188.887491,24.7036473 188.759522,23.0258443 L164.087802,23.0251938 L163.936103,22.9739087 L134.17,0.25 L105.815821,0.250650464 C105.687852,1.92845351 104.285929,3.25 102.575342,3.25 Z M192,20.0251938 C190.481217,20.0251938 189.25,21.2564107 189.25,22.7751938 C189.25,24.2939769 190.481217,25.5251938 192,25.5251938 C193.518783,25.5251938 194.75,24.2939769 194.75,22.7751938 C194.75,21.2564107 193.518783,20.0251938 192,20.0251938 Z M102.575342,-2.75 C101.056559,-2.75 99.8253425,-1.51878306 99.8253425,0 C99.8253425,1.51878306 101.056559,2.75 102.575342,2.75 C104.094126,2.75 105.325342,1.51878306 105.325342,0 C105.325342,-1.51878306 104.094126,-2.75 102.575342,-2.75 Z" fill="url(#linearGradient-11)"></path>
                        <path id="路径-33" d="M187.616438,75.5872093 C189.411364,75.5872093 190.866438,77.0422839 190.866438,78.8372093 C190.866438,80.6321347 189.411364,82.0872093 187.616438,82.0872093 C185.905852,82.0872093 184.503929,80.7656628 184.37596,79.0878598 L157.283,79.087 L126.765935,102.686144 L126.613009,102.738372 L112.829519,102.739023 C112.70155,104.416826 111.299627,105.738372 109.589041,105.738372 C107.794116,105.738372 106.339041,104.283298 106.339041,102.488372 C106.339041,100.693447 107.794116,99.2383721 109.589041,99.2383721 C111.299845,99.2383721 112.701907,100.560255 112.829568,102.238363 L126.527,102.238 L157.047076,78.6394374 L157.200001,78.5872093 L184.375911,78.5872002 C184.503572,76.9090926 185.905634,75.5872093 187.616438,75.5872093 Z M109.589041,99.7383721 C108.070258,99.7383721 106.839041,100.969589 106.839041,102.488372 C106.839041,104.007155 108.070258,105.238372 109.589041,105.238372 C111.107824,105.238372 112.339041,104.007155 112.339041,102.488372 C112.339041,100.969589 111.107824,99.7383721 109.589041,99.7383721 Z M187.616438,76.0872093 C186.097655,76.0872093 184.866438,77.3184262 184.866438,78.8372093 C184.866438,80.3559924 186.097655,81.5872093 187.616438,81.5872093 C189.135221,81.5872093 190.366438,80.3559924 190.366438,78.8372093 C190.366438,77.3184262 189.135221,76.0872093 187.616438,76.0872093 Z" fill="url(#linearGradient-12)"></path>
                        <path id="路径-34" d="M186.739726,55.4399225 C188.534651,55.4399225 189.989726,56.894997 189.989726,58.6899225 C189.989726,60.4848479 188.534651,61.9399225 186.739726,61.9399225 C185.0288,61.9399225 183.62666,60.6178505 183.499172,58.9395722 L161.524,58.939 L152.648387,65.6868152 C153.56287,67.1000361 153.246847,69.0013035 151.884717,70.0368448 C150.455828,71.1231383 148.416869,70.8454098 147.330576,69.4165208 C146.244282,67.9876318 146.522011,65.9486735 147.9509,64.86238 C149.312719,63.8270758 151.228679,64.0307478 152.345937,65.289124 L161.288831,58.4909046 L161.440131,58.4399225 L183.499248,58.439272 C183.627217,56.761469 185.02914,55.4399225 186.739726,55.4399225 Z M148.253501,65.2604158 C147.044441,66.1795872 146.80944,67.9048596 147.728612,69.1139195 C148.647783,70.3229794 150.373055,70.5579805 151.582115,69.638809 C152.791175,68.7196376 153.026176,66.9943652 152.107005,65.7853053 C151.187833,64.5762454 149.462561,64.3412443 148.253501,65.2604158 Z M186.739726,55.9399225 C185.220943,55.9399225 183.989726,57.1711394 183.989726,58.6899225 C183.989726,60.2087055 185.220943,61.4399225 186.739726,61.4399225 C188.258509,61.4399225 189.489726,60.2087055 189.489726,58.6899225 C189.489726,57.1711394 188.258509,55.9399225 186.739726,55.9399225 Z" fill="url(#linearGradient-13)" opacity="0.5"></path>
                        <path id="路径-34备份" d="M64,59.8197674 C65.7949254,59.8197674 67.25,61.274842 67.25,63.0697674 C67.25,64.8646929 65.7949254,66.3197674 64,66.3197674 C62.2891957,66.3197674 60.8871337,64.9978842 60.7594731,63.3197766 L38.784,63.319 L29.9097471,70.0683399 C30.8228935,71.4813873 30.5065814,73.3815587 29.1449906,74.4166898 C27.7161016,75.5029833 25.6771433,75.2252547 24.5908498,73.7963657 C23.5045563,72.3674767 23.7822848,70.3285185 25.2111738,69.242225 C26.5728771,68.2070085 28.4886281,68.4105583 29.6059275,69.6686491 L38.5491045,62.8707496 L38.7004051,62.8197674 L60.759522,62.819117 C60.8874909,61.1413139 62.2894136,59.8197674 64,59.8197674 Z M25.5137751,69.6402607 C24.3047152,70.5594322 24.0697141,72.2847045 24.9888856,73.4937645 C25.908057,74.7028244 27.6333294,74.9378254 28.8423893,74.018654 C30.0514492,73.0994826 30.2864503,71.3742102 29.3672788,70.1651503 C28.4481074,68.9560904 26.722835,68.7210893 25.5137751,69.6402607 Z M64,60.3197674 C62.4812169,60.3197674 61.25,61.5509844 61.25,63.0697674 C61.25,64.5885505 62.4812169,65.8197674 64,65.8197674 C65.5187831,65.8197674 66.75,64.5885505 66.75,63.0697674 C66.75,61.5509844 65.5187831,60.3197674 64,60.3197674 Z" fill="url(#linearGradient-13)" opacity="0.5"></path>
                    </g>
                    <g id="编组" transform="translate(9.000000, 2.956870)" fill="#FFFFFF" fill-rule="nonzero">
                        <ellipse id="椭圆形" cx="1.78786395" cy="2.39786914" rx="1.78786395" ry="1.64526123"></ellipse>
                        <ellipse id="椭圆形" transform="translate(11.418828, 2.022453) rotate(-76.714204) translate(-11.418828, -2.022453) " cx="11.4188277" cy="2.0224526" rx="1.65675404" ry="1.78426898"></ellipse>
                        <ellipse id="椭圆形" cx="20.2121361" cy="2.39786914" rx="1.78786395" ry="1.64526123"></ellipse>
                    </g>
                </g>
                <g id="编组-3" transform="translate(285.665080, 34.950787)">
                    <g id="Fill-25">
                        <use fill="black" fill-opacity="1" filter="url(#filter-15)" xlink:href="#path-14"></use>
                        <use stroke-opacity="0.312663899" stroke="#E7E5EE" stroke-width="1" fill="#FFFFFF" fill-rule="evenodd" xlink:href="#path-14"></use>
                    </g>
                    <g id="编组备份-3" transform="translate(11.162791, 14.139535)" fill="#00B173">
                        <path d="M2.95464435,19.2333332 L2.95464435,18.606884 L0.78467604,18.606884 L0.78467604,17.1182599 L2.62527416,17.1182599 L2.62527416,16.4885816 L0.78467604,16.4885816 L0.78467604,15.1614135 L2.93204051,15.1614135 L2.93204051,14.5317352 L0,14.5317352 L0,19.2333332 L2.95464435,19.2333332 Z M4.44649756,19.2333332 L4.44649756,15.7943209 L4.46587228,15.7878627 L5.78335304,19.2333332 L6.322616,19.2333332 L7.61749292,15.8524451 L7.63686764,15.8556742 L7.63686764,19.2333332 L8.42154368,19.2333332 L8.42154368,14.5317352 L7.42051663,14.5317352 L6.06105732,18.148349 L6.0416826,18.148349 L4.69191065,14.5317352 L3.66182152,14.5317352 L3.66182152,19.2333332 L4.44649756,19.2333332 Z M12.8841868,19.7209302 L13.4073042,19.2527079 L12.7130435,18.5616763 C12.8400555,18.3916094 12.9374673,18.2000149 13.0052788,17.9868931 C13.0730903,17.7737712 13.1069961,17.5466564 13.1069961,17.3055488 L13.1069961,17.3055488 L13.1069961,16.4595195 C13.1069961,15.886889 12.9261654,15.4111321 12.564504,15.0322487 C12.2028426,14.6533654 11.7346203,14.4639237 11.159837,14.4639237 C10.5958175,14.4639237 10.1378207,14.6533654 9.78584667,15.0322487 C9.43387264,15.4111321 9.25788563,15.886889 9.25788563,16.4595195 L9.25788563,16.4595195 L9.25788563,17.3055488 C9.25788563,17.8803321 9.43441083,18.3566272 9.78746123,18.7344342 C10.1405116,19.1122412 10.5979702,19.3011447 11.159837,19.3011447 C11.3514314,19.3011447 11.5333385,19.2785409 11.7055582,19.2333332 C11.8777779,19.1881255 12.0381575,19.1213904 12.186697,19.0331278 L12.186697,19.0331278 L12.8841868,19.7209302 Z M11.159837,18.6585499 C10.8153976,18.6585499 10.5430752,18.5320761 10.3428698,18.2791284 C10.1426644,18.0261807 10.0425617,17.7016542 10.0425617,17.3055488 L10.0425617,17.3055488 L10.0425617,16.4530613 C10.0425617,16.0612615 10.1421262,15.7394259 10.3412552,15.4875546 C10.5403843,15.2356832 10.8132449,15.1097476 11.159837,15.1097476 C11.5171929,15.1097476 11.8002791,15.2356832 12.0090955,15.4875546 C12.2179118,15.7394259 12.32232,16.0612615 12.32232,16.4530613 L12.32232,16.4530613 L12.32232,17.3055488 C12.32232,17.7038069 12.21845,18.0288716 12.01071,18.2807429 C11.80297,18.5326143 11.5193457,18.6585499 11.159837,18.6585499 Z M16.2876788,19.2333332 L17.3080806,17.4670048 L18.3284823,19.2333332 L19.2713852,19.2333332 L17.7698447,16.8631595 L19.2164902,14.5317352 L18.2865038,14.5317352 L17.2951641,16.2690015 L16.3135118,14.5317352 L15.3899836,14.5317352 L16.8366291,16.8631595 L15.3576924,19.2333332 L16.2876788,19.2333332 Z M23.2335149,19.3011447 C23.7717014,19.3011447 24.1990216,19.1552961 24.5154753,18.863599 C24.831929,18.5719019 24.9858504,18.1892512 24.9772394,17.715647 L24.9772394,17.715647 L24.9707812,17.6962723 L24.2151672,17.6962723 C24.2151672,18.012726 24.1317483,18.25491 23.9649104,18.4228242 C23.7980726,18.5907384 23.5542741,18.6746955 23.2335149,18.6746955 C22.9062974,18.6746955 22.6479679,18.5482217 22.4585262,18.295274 C22.2690845,18.0423263 22.1743637,17.7210289 22.1743637,17.3313818 L22.1743637,17.3313818 L22.1743637,16.4304575 C22.1743637,16.0451159 22.2674699,15.7259712 22.4536825,15.4730235 C22.6398951,15.2200758 22.8923046,15.093602 23.210911,15.093602 C23.5402812,15.093602 23.7899998,15.1770209 23.9600668,15.3438587 C24.1301337,15.5106966 24.2151672,15.751266 24.2151672,16.0655669 L24.2151672,16.0655669 L24.9740103,16.0655669 L24.9804685,16.0461922 C24.9890795,15.5553661 24.83462,15.1689481 24.5170899,14.8869383 C24.1995598,14.6049286 23.7641668,14.4639237 23.210911,14.4639237 C22.6705717,14.4639237 22.2324878,14.649598 21.8966594,15.0209468 C21.560831,15.3922955 21.3929167,15.8642852 21.3929167,16.4369157 L21.3929167,16.4369157 L21.3929167,17.3313818 C21.3929167,17.9061651 21.5629837,18.3781547 21.9031176,18.7473507 C22.2432515,19.1165467 22.6867173,19.3011447 23.2335149,19.3011447 Z M28.7197889,19.2333332 L28.7197889,18.606884 L26.5175294,18.606884 L26.5175294,14.5317352 L25.7328534,14.5317352 L25.7328534,19.2333332 L28.7197889,19.2333332 Z M30.9718543,19.3011447 C31.5487904,19.3011447 32.0175509,19.1122412 32.3781359,18.7344342 C32.7387209,18.3566272 32.9190134,17.8803321 32.9190134,17.3055488 L32.9190134,17.3055488 L32.9190134,16.4595195 C32.9190134,15.886889 32.7381827,15.4111321 32.3765213,15.0322487 C32.01486,14.6533654 31.5466376,14.4639237 30.9718543,14.4639237 C30.4078348,14.4639237 29.949838,14.6533654 29.597864,15.0322487 C29.24589,15.4111321 29.069903,15.886889 29.069903,16.4595195 L29.069903,16.4595195 L29.069903,17.3055488 C29.069903,17.8803321 29.2464282,18.3566272 29.5994786,18.7344342 C29.952529,19.1122412 30.4099876,19.3011447 30.9718543,19.3011447 Z M30.9718543,18.6585499 C30.6274149,18.6585499 30.3550925,18.5320761 30.1548871,18.2791284 C29.9546817,18.0261807 29.854579,17.7016542 29.854579,17.3055488 L29.854579,17.3055488 L29.854579,16.4530613 C29.854579,16.0612615 29.9541435,15.7394259 30.1532726,15.4875546 C30.3524016,15.2356832 30.6252622,15.1097476 30.9718543,15.1097476 C31.3292102,15.1097476 31.6122964,15.2356832 31.8211128,15.4875546 C32.0299292,15.7394259 32.1343374,16.0612615 32.1343374,16.4530613 L32.1343374,16.4530613 L32.1343374,17.3055488 C32.1343374,17.7038069 32.0304674,18.0288716 31.8227273,18.2807429 C31.6149873,18.5326143 31.331363,18.6585499 30.9718543,18.6585499 Z M35.4990799,19.3011447 C36.041572,19.3011447 36.4844995,19.1531434 36.8278626,18.8571408 C37.1712256,18.5611381 37.3429071,18.1515782 37.3429071,17.6284608 L37.3429071,17.6284608 L37.3429071,14.5317352 L36.5582311,14.5317352 L36.5582311,17.6284608 C36.5582311,17.9621365 36.4613575,18.2199278 36.2676103,18.4018349 C36.0738632,18.583742 35.8176864,18.6746955 35.4990799,18.6746955 C35.1912372,18.6746955 34.9436713,18.583742 34.7563824,18.4018349 C34.5690935,18.2199278 34.475449,17.9621365 34.475449,17.6284608 L34.475449,17.6284608 L34.475449,14.5317352 L33.690773,14.5317352 L33.690773,17.6284608 C33.690773,18.1515782 33.8586872,18.5611381 34.1945156,18.8571408 C34.530344,19.1531434 34.9651988,19.3011447 35.4990799,19.3011447 Z M39.8131836,19.2333332 C40.4094943,19.2333332 40.8944004,19.048197 41.2679019,18.6779246 C41.6414034,18.3076523 41.8281541,17.8286662 41.8281541,17.2409665 L41.8281541,17.2409665 L41.8281541,16.527331 C41.8281541,15.941784 41.6414034,15.462798 41.2679019,15.0903729 C40.8944004,14.7179477 40.4094943,14.5317352 39.8131836,14.5317352 L39.8131836,14.5317352 L38.2599771,14.5317352 L38.2599771,19.2333332 L39.8131836,19.2333332 Z M39.8131836,18.606884 L39.0446531,18.606884 L39.0446531,15.1614135 L39.8131836,15.1614135 C40.1899142,15.1614135 40.4891459,15.2889637 40.7108788,15.5440641 C40.9326117,15.7991646 41.0434781,16.1247675 41.0434781,16.5208728 L41.0434781,16.5208728 L41.0434781,17.2409665 C41.0434781,17.6413773 40.9326117,17.9691329 40.7108788,18.2242333 C40.4891459,18.4793338 40.1899142,18.606884 39.8131836,18.606884 L39.8131836,18.606884 Z" id="EMQXCLOUD" fill-rule="nonzero"></path>
                        <g id="编组-58" transform="translate(12.727490, 0.000000)">
                            <path d="M12.2288021,9.64382953 C11.9338657,9.64382953 11.6946335,9.40459732 11.6946335,9.10992999 C11.6946335,8.81472445 11.9338657,8.57549224 12.2288021,8.57549224 C13.9061185,8.57549224 15.2707378,7.21087301 15.2707378,5.53382567 C15.2707378,3.85624012 13.9061185,2.49162088 12.2288021,2.49162088 C11.9338657,2.49162088 11.6946335,2.25238868 11.6946335,1.95772134 C11.6946335,1.6625158 11.9338657,1.4232836 12.2288021,1.4232836 C14.4951841,1.4232836 16.3390751,3.26717455 16.3390751,5.53382567 C16.3390751,7.79993858 14.4951841,9.64382953 12.2288021,9.64382953" id="Fill-2"></path>
                            <path d="M4.11027296,9.64382953 C1.84389095,9.64382953 1.91208891e-15,7.79993858 1.91208891e-15,5.53382567 C1.91208891e-15,3.26717455 1.84389095,1.4232836 4.11027296,1.4232836 C4.40547851,1.4232836 4.64444161,1.6625158 4.64444161,1.95772134 C4.64444161,2.25238868 4.40547851,2.49162088 4.11027296,2.49162088 C2.43295652,2.49162088 1.06833728,3.85624012 1.06833728,5.53382567 C1.06833728,7.21087301 2.43295652,8.57549224 4.11027296,8.57549224 C4.40547851,8.57549224 4.64444161,8.81472445 4.64444161,9.10992999 C4.64444161,9.40459732 4.40547851,9.64382953 4.11027296,9.64382953" id="Fill-3"></path>
                            <path d="M6.66252266,11.0673822 C6.36731712,11.0673822 6.12835402,10.82815 6.12835402,10.5332136 C6.12835402,10.238008 6.36731712,9.99877584 6.66252266,9.99877584 C9.12454226,9.99877584 11.1277419,7.99584526 11.1277419,5.53382567 C11.1277419,3.07126786 9.12454226,1.06833728 6.66252266,1.06833728 C6.36731712,1.06833728 6.12835402,0.829105081 6.12835402,0.533899539 C6.12835402,0.239232203 6.36731712,5.44945338e-14 6.66252266,5.44945338e-14 C9.71360783,5.44945338e-14 12.1960792,2.4824714 12.1960792,5.53382567 C12.1960792,8.58464173 9.71360783,11.0673822 6.66252266,11.0673822" id="Fill-4"></path>
                        </g>
                    </g>
                </g>
                <g id="编组-2备份" transform="translate(166.000000, 51.000000)">
                    <path d="M64,32.000603 C64,49.6736578 49.6736578,64.001206 31.999397,64.001206 C14.3263422,64.001206 -5.44150918e-13,49.6736578 -5.44150918e-13,32.000603 C-5.44150918e-13,14.3275482 14.3263422,-4.24180637e-13 31.999397,-4.24180637e-13 C49.6736578,-4.24180637e-13 64,14.3275482 64,32.000603" id="Fill-10" fill="url(#linearGradient-16)"></path>
                    <polygon id="Fill-11" fill="#FFFFFF" points="16.4021482 18.2167298 16.4021482 29.2433942 24.0543615 36.8956074 16.4021482 44.5478207 16.4021482 55.5732791 35.0810259 36.8956074"></polygon>
                    <polygon id="Fill-12" fill="#FFFFFF" points="39.9400908 27.1117493 47.5971282 19.4535059 47.5971282 8.42804756 28.9134264 27.1117493 47.5971282 45.795451 47.5971282 34.7699927"></polygon>
                </g>
                <g id="矩形备份-38">
                    <use fill="black" fill-opacity="1" filter="url(#filter-18)" xlink:href="#path-17"></use>
                    <use stroke-opacity="0.312663899" stroke="#E7E5EE" stroke-width="1" fill="#FFFFFF" fill-rule="evenodd" xlink:href="#path-17"></use>
                </g>
                <g id="矩形备份-39">
                    <use fill="black" fill-opacity="1" filter="url(#filter-20)" xlink:href="#path-19"></use>
                    <use stroke-opacity="0.312663899" stroke="#E7E5EE" stroke-width="1" fill="#FFFFFF" fill-rule="evenodd" xlink:href="#path-19"></use>
                </g>
                <g id="矩形备份-40">
                    <use fill="black" fill-opacity="1" filter="url(#filter-22)" xlink:href="#path-21"></use>
                    <use stroke-opacity="0.312663899" stroke="#E7E5EE" stroke-width="1" fill="#FFFFFF" fill-rule="evenodd" xlink:href="#path-21"></use>
                </g>
                <g id="编组-33" transform="translate(87.000000, 117.000000)">
                    <rect id="矩形" stroke="url(#linearGradient-23)" stroke-width="2" x="0" y="0" width="20" height="20" rx="2"></rect>
                    <path d="M14.6129053,2.17244555 L17.9021037,2.28586618 L18.0155244,5.57506465 L16.8804171,4.44044555 L12.5146235,8.80755279 L11.3804171,7.67334642 L15.7464171,3.30644555 L14.6129053,2.17244555 Z" id="形状结合备份-2" fill="url(#linearGradient-24)"></path>
                    <path d="M8.04928627,11.0044773 L9.18349264,12.1386837 L4.8163854,16.5044773 L5.95100449,17.6395845 L2.66180603,17.5261639 L2.5483854,14.2369654 L3.6823854,15.3704773 L8.04928627,11.0044773 Z" id="形状结合备份-3" fill="url(#linearGradient-25)"></path>
                </g>
                <g id="编组-7" transform="translate(293.000000, 120.000000)">
                    <path d="M5.61449313,14.9620745 C7.05882844,17.0075838 9.43500015,18.3424746 12.1215479,18.3424746 C16.5244894,18.3424746 20.0937788,14.7570346 20.0937788,10.3341703 C20.0937788,5.91130594 16.5244894,2.32586597 12.1215479,2.32586597 C7.71860636,2.32586597 4.14931702,5.91130594 4.14931702,10.3341703" id="路径" stroke="url(#linearGradient-26)" stroke-width="2" stroke-linecap="round"></path>
                    <polyline id="路径" stroke="url(#linearGradient-27)" stroke-width="2" stroke-linecap="round" transform="translate(6.141581, 15.838827) rotate(-352.000000) translate(-6.141581, -15.838827) " points="4.64852142 17.3402527 4.64665707 14.3374006 7.63650566 14.339265"></polyline>
                    <polyline id="路径-22" stroke="url(#linearGradient-28)" stroke-width="2" stroke-linecap="round" points="11.7918374 5.59373216 11.7918374 10.5989224 16.7744817 10.5989224"></polyline>
                    <path d="M3.62973988,1.48577493 L5.48992708,3.48785101 L3.62973988,5.48992708 L3.62922507,4.15477493 L-1.48577493,4.1552097 L-1.48577493,2.82049231 L3.62922507,2.81977493 L3.62973988,1.48577493 Z" id="形状结合" fill="url(#linearGradient-29)" transform="translate(2.002076, 3.487851) rotate(-90.000000) translate(-2.002076, -3.487851) "></path>
                    <path d="M24.0228667,13.3372844 L25.8830539,15.3393605 L24.0228667,17.3414366 L24.0223519,16.0062844 L18.9073519,16.0067192 L18.9073519,14.6720018 L24.0223519,14.6712844 L24.0228667,13.3372844 Z" id="形状结合备份-2" fill="url(#linearGradient-29)" transform="translate(22.395203, 15.339360) rotate(-90.000000) translate(-22.395203, -15.339360) "></path>
                </g>
                <g id="编组-9" transform="translate(55.000000, 50.000000)" stroke-width="2">
                    <g id="编组-8">
                        <path d="M7.74355751,10.5705706 L7.74355751,9.72899313 L7.74355751,0.880880881 C7.74355751,0.394383804 8.11501202,0 8.57322439,0 L13.5512256,0 C14.009438,0 14.3808925,0.394383804 14.3808925,0.880880881 L14.3808925,4.75261545" id="路径" stroke="url(#linearGradient-30)"></path>
                        <path d="M12.8690551,16.1016831 L12.8690551,15.2209625 L12.8690551,5.96131015 C12.8690551,5.4521853 13.2240005,5.03945806 13.6618479,5.03945806 L18.4186047,5.03945806 C18.856452,5.03945806 19.2113974,5.4521853 19.2113974,5.96131015 L19.2113974,10.0131254" id="路径" stroke="url(#linearGradient-31)" transform="translate(16.040226, 10.570571) rotate(-270.000000) translate(-16.040226, -10.570571) "></path>
                        <path d="M7.74355751,21.1411411 L7.74355751,20.2995637 L7.74355751,11.4514515 C7.74355751,10.9649544 8.11501202,10.5705706 8.57322439,10.5705706 L13.5512256,10.5705706 C14.009438,10.5705706 14.3808925,10.9649544 14.3808925,11.4514515 L14.3808925,15.323186" id="路径" stroke="url(#linearGradient-30)" transform="translate(11.062225, 15.855856) rotate(-180.000000) translate(-11.062225, -15.855856) "></path>
                        <path d="M2.35994134,16.1016831 L2.35994134,15.2209625 L2.35994134,5.96131015 C2.35994134,5.4521853 2.71488676,5.03945806 3.15273413,5.03945806 L7.90949089,5.03945806 C8.34733826,5.03945806 8.70228368,5.4521853 8.70228368,5.96131015 L8.70228368,10.0131254" id="路径" stroke="url(#linearGradient-31)" transform="translate(5.531113, 10.570571) rotate(-90.000000) translate(-5.531113, -10.570571) "></path>
                    </g>
                </g>
                <path d="M329.625,173 C329.226449,172.037736 329,170.990566 329,169.896226 C329,164.981132 333.474638,161 339,161 C339.342475,161 339.680914,161.015295 340.014501,161.045159 C340.292113,156.562242 344.656641,153 350,153 C353.964617,153 357.390368,154.961089 359.007866,157.804289 L359.004115,157.746238 L359.004115,157.746238 L359,157.5 C359,152.80558 363.477153,149 369,149 C374.522847,149 379,152.80558 379,157.5 L378.99909,157.396541 C381.371908,158.04236 383.363088,159.434395 384.607884,161.256062 C385.373827,161.088711 386.175207,161 387,161 C392.525362,161 397,164.981132 397,169.896226 C397,170.990566 396.773551,172.037736 396.375,173 L396.375,173 Z" id="形状结合备份-19" fill="url(#linearGradient-32)" fill-rule="nonzero" opacity="0.200000003"></path>
                <path d="M285.5,177 C285.181159,176.278302 285,175.492925 285,174.67217 C285,170.985849 288.57971,168 293,168 C293.345399,168 293.685666,168.018231 294.019494,168.053603 C294.300215,164.672469 297.765991,162 302,162 C305.081811,162 307.756616,163.415863 309.092819,165.490667 C309.031525,165.167592 309,164.836787 309,164.5 C309,160.910149 312.581722,158 317,158 C321.302946,158 324.812441,160.760203 324.992727,164.220308 C327.311942,164.74332 329.225084,166.160056 330.231787,168.030066 C330.484066,168.010284 330.740585,168 331,168 C335.42029,168 339,170.985849 339,174.67217 C339,175.492925 338.818841,176.278302 338.5,177 L338.5,177 Z" id="形状结合备份-22" fill="url(#linearGradient-33)" fill-rule="nonzero" opacity="0.200000003"></path>
                <path d="M0.769488485,160.133262 C0.278800176,158.97177 0,157.707793 0,156.38688 C0,150.454161 5.50909147,145.648773 12.3118158,145.648773 C12.8037739,145.648773 13.2889665,145.673904 13.7657993,145.722776 C13.9431191,140.056827 19.3850159,135.50963 26.0720804,135.50963 C30.7775175,135.50963 34.866421,137.761134 36.9387356,141.069977 L36.9354473,140.941314 C36.9354473,135.141631 42.4476349,130.440059 49.247263,130.440059 C56.0468911,130.440059 61.5590788,135.141631 61.5590788,140.941314 L61.5587575,140.873996 C64.8612235,141.55918 67.6437019,143.390015 69.3082979,145.85137 C70.0804769,145.718293 70.8799914,145.648773 71.6982212,145.648773 C78.5009455,145.648773 84.0100369,150.454161 84.0100369,156.38688 C84.0100369,157.707793 83.7312368,158.97177 83.2405484,160.133262 L83.2405484,160.133262 Z" id="形状结合备份-20" fill="url(#linearGradient-34)" fill-rule="nonzero" opacity="0.200000003"></path>
                <path d="M4.40625,32 C4.14719203,31.3584906 4,30.6603774 4,29.9308176 C4,26.6540881 6.90851449,24 10.5,24 C10.7480699,24 10.9928814,24.0126624 11.2337012,24.0373177 C11.9894125,21.7096963 14.5087439,20 17.5,20 C19.8179865,20 21.8525812,21.0266764 23.0033082,22.5719343 L23,22.5 C23,19.4624339 25.9101491,17 29.5,17 C33.0898509,17 36,19.4624339 36,22.5 L35.9990232,22.4148623 C37.1011034,22.7978131 38.0494214,23.426506 38.7458243,24.2190246 C39.3035478,24.0760664 39.8919869,24 40.5,24 C44.0914855,24 47,26.6540881 47,29.9308176 C47,30.6603774 46.852808,31.3584906 46.59375,32 L46.59375,32 Z" id="形状结合备份-21" fill="url(#linearGradient-35)" fill-rule="nonzero" opacity="0.200000003"></path>
            </g>
        </g>
    </g>
</svg>