<?xml version="1.0" standalone="no"?><!DOCTYPE svg PUBLIC "-//W3C//DTD SVG 1.1//EN" "http://www.w3.org/Graphics/SVG/1.1/DTD/svg11.dtd"><svg fill="currentColor" class="icon"   viewBox="0 0 1024 1024" version="1.1" xmlns="http://www.w3.org/2000/svg"><path d="M827.733333 196.266667c-85.333333-85.333333-196.266667-132.266667-315.733333-132.266667-89.6 0-174.933333 25.6-247.466667 76.8C187.733333 187.733333 132.266667 260.266667 98.133333 341.333333c-34.133333 81.066667-42.666667 170.666667-25.6 260.266667 17.066667 85.333333 59.733333 166.4 123.733334 230.4C260.266667 896 337.066667 938.666667 426.666667 955.733333c85.333333 17.066667 174.933333 8.533333 260.266666-25.6 81.066667-34.133333 153.6-89.6 200.533334-166.4 51.2-72.533333 76.8-162.133333 76.8-247.466666-4.266667-123.733333-51.2-238.933333-136.533334-320z m-42.666666 588.8c-72.533333 72.533333-170.666667 110.933333-273.066667 110.933333-76.8 0-149.333333-21.333333-213.333333-64s-110.933333-102.4-140.8-170.666667c-29.866667-72.533333-38.4-149.333333-21.333334-226.133333 12.8-72.533333 51.2-140.8 106.666667-196.266667s123.733333-89.6 196.266667-106.666666c72.533333-12.8 149.333333-4.266667 217.6 25.6 68.266667 29.866667 132.266667 76.8 170.666666 140.8 42.666667 64 64 136.533333 64 213.333333 4.266667 102.4-34.133333 200.533333-106.666666 273.066667zM477.866667 256h64v349.866667h-64zM512 704c-8.533333 0-17.066667 4.266667-25.6 8.533333s-17.066667 12.8-17.066667 21.333334c-4.266667 8.533333-4.266667 17.066667-4.266666 25.6 0 8.533333 8.533333 17.066667 12.8 25.6 8.533333 8.533333 17.066667 12.8 25.6 12.8 8.533333 0 17.066667 0 25.6-4.266667 8.533333-4.266667 17.066667-8.533333 21.333333-17.066667s8.533333-17.066667 8.533333-25.6c0-12.8-4.266667-25.6-12.8-34.133333-8.533333-8.533333-21.333333-12.8-34.133333-12.8z" /></svg>