<?xml version="1.0" standalone="no"?><!DOCTYPE svg PUBLIC "-//W3C//DTD SVG 1.1//EN" "http://www.w3.org/Graphics/SVG/1.1/DTD/svg11.dtd"><svg fill="currentColor" class="icon"   viewBox="0 0 1024 1024" version="1.1" xmlns="http://www.w3.org/2000/svg"><path d="M578.56 343.04c-5.12-5.12-15.36-15.36-20.48-15.36-10.24-5.12-20.48-5.12-25.6-5.12H128c-15.36 0-30.72 5.12-46.08 20.48-10.24 10.24-20.48 25.6-20.48 40.96v512c0 15.36 5.12 30.72 20.48 46.08 10.24 10.24 30.72 20.48 46.08 20.48h512c15.36 0 30.72-5.12 46.08-20.48 10.24-10.24 20.48-30.72 20.48-46.08v-373.76c0-15.36-5.12-30.72-15.36-40.96l-112.64-138.24z m-291.84 40.96h194.56v97.28H286.72V384z m194.56 512H286.72v-194.56h194.56v194.56z m158.72 0h-97.28v-194.56c0-15.36-5.12-30.72-20.48-46.08-10.24-10.24-30.72-20.48-46.08-20.48H286.72c-15.36 0-30.72 5.12-46.08 20.48-10.24 10.24-20.48 30.72-20.48 46.08v194.56H128v-512h97.28v97.28c0 15.36 5.12 30.72 20.48 46.08 10.24 10.24 30.72 20.48 46.08 20.48h194.56c15.36 0 30.72-5.12 46.08-20.48 10.24-10.24 20.48-30.72 20.48-46.08V404.48l97.28 117.76v373.76zM942.08 81.92c-10.24-10.24-30.72-20.48-46.08-20.48H450.56c-15.36 0-30.72 5.12-46.08 20.48-15.36 15.36-20.48 30.72-20.48 46.08v97.28h61.44V128h450.56v450.56h-97.28v61.44h97.28c15.36 0 30.72-5.12 46.08-20.48 10.24-10.24 20.48-30.72 20.48-46.08V128c0-15.36-10.24-30.72-20.48-46.08z" /></svg>