<?xml version="1.0" standalone="no"?><!DOCTYPE svg PUBLIC "-//W3C//DTD SVG 1.1//EN" "http://www.w3.org/Graphics/SVG/1.1/DTD/svg11.dtd"><svg fill="currentColor" class="icon"   viewBox="0 0 1024 1024" version="1.1" xmlns="http://www.w3.org/2000/svg"><path d="M61.44 829.44h896v61.44H61.44zM640 737.28H768c15.36 0 30.72-5.12 46.08-20.48 10.24-10.24 20.48-30.72 20.48-46.08V450.56c0-15.36-5.12-30.72-20.48-46.08-10.24-10.24-30.72-20.48-46.08-20.48h-128c-15.36 0-30.72 5.12-46.08 20.48-10.24 10.24-20.48 30.72-20.48 46.08v225.28c0 15.36 5.12 30.72 20.48 46.08 15.36 5.12 30.72 15.36 46.08 15.36z m0-286.72H768v225.28h-128V450.56zM256 737.28h128c15.36 0 30.72-5.12 46.08-20.48 10.24-10.24 20.48-30.72 20.48-46.08V194.56c0-15.36-5.12-30.72-20.48-46.08-15.36-15.36-30.72-20.48-46.08-20.48H256c-15.36 0-30.72 5.12-46.08 20.48-10.24 10.24-15.36 25.6-15.36 46.08v481.28c0 15.36 5.12 30.72 20.48 46.08 10.24 5.12 25.6 15.36 40.96 15.36zM256 194.56h128v481.28H256V194.56z" /></svg>