<?xml version="1.0" standalone="no"?><!DOCTYPE svg PUBLIC "-//W3C//DTD SVG 1.1//EN" "http://www.w3.org/Graphics/SVG/1.1/DTD/svg11.dtd"><svg fill="currentColor" class="icon"   viewBox="0 0 1024 1024" version="1.1" xmlns="http://www.w3.org/2000/svg"><path d="M896 194.56H256c-40.96 0-61.44 20.48-61.44 61.44v450.56c0 35.84 20.48 61.44 61.44 61.44h256v-61.44H256V256h640v450.56H665.6L512 921.6l51.2 40.96 133.12-194.56h199.68c40.96 0 61.44-25.6 61.44-61.44V256c5.12-40.96-25.6-61.44-61.44-61.44zM573.44 61.44H158.72C102.4 61.44 61.44 102.4 61.44 158.72v414.72h61.44V158.72c0-20.48 10.24-30.72 30.72-30.72h414.72V61.44z" /></svg>