<?xml version="1.0" standalone="no"?><!DOCTYPE svg PUBLIC "-//W3C//DTD SVG 1.1//EN" "http://www.w3.org/Graphics/SVG/1.1/DTD/svg11.dtd"><svg fill="currentColor" class="icon"   viewBox="0 0 1024 1024" version="1.1" xmlns="http://www.w3.org/2000/svg"><path d="M640 573.44h194.56v61.44h-194.56zM768 829.44h194.56v61.44H768zM706.56 706.56h194.56V768h-194.56zM660.48 901.12c-112.64-87.04-112.64-261.12-112.64-261.12 0-25.6-5.12-51.2-20.48-76.8-15.36-25.6-30.72-40.96-56.32-56.32l235.52-409.6-56.32-30.72-245.76 419.84c-25.6-10.24-61.44-10.24-87.04 0-30.72 10.24-56.32 25.6-76.8 46.08-117.76 117.76-112.64 384-112.64 399.36 0 10.24 5.12 15.36 10.24 20.48 5.12 5.12 15.36 10.24 20.48 10.24h481.28c5.12 0 15.36 0 20.48-5.12 5.12-5.12 10.24-10.24 10.24-15.36V921.6c0-10.24-5.12-15.36-10.24-20.48z m-327.68-353.28c15.36-5.12 30.72-5.12 46.08-5.12 25.6 0 51.2 10.24 66.56 30.72 20.48 15.36 30.72 40.96 30.72 66.56v15.36l-189.44-81.92c15.36-10.24 30.72-20.48 46.08-25.6z m163.84 348.16c-25.6-25.6-40.96-61.44-46.08-97.28H384c0 35.84 15.36 66.56 30.72 97.28H343.04c-15.36-40.96-20.48-87.04-25.6-128H256c0 40.96 10.24 87.04 20.48 128H194.56c0-56.32 10.24-189.44 56.32-271.36l240.64 107.52c10.24 61.44 35.84 117.76 71.68 168.96H496.64z" /></svg>