<?xml version="1.0" standalone="no"?><!DOCTYPE svg PUBLIC "-//W3C//DTD SVG 1.1//EN" "http://www.w3.org/Graphics/SVG/1.1/DTD/svg11.dtd"><svg fill="currentColor" class="icon"   viewBox="0 0 1024 1024" version="1.1" xmlns="http://www.w3.org/2000/svg"><path d="M740 742.88a30.08 30.08 0 1 1 0-60 170.88 170.88 0 0 0 0-341.76 30.08 30.08 0 1 1 0-60 230.88 230.88 0 0 1 0 461.76zM284 742.88a230.88 230.88 0 0 1 0-461.76 30.08 30.08 0 1 1 0 60 170.88 170.88 0 0 0 0 341.76 30.08 30.08 0 1 1 0 60zM427.36 822.88a30.08 30.08 0 1 1 0-60.16 250.72 250.72 0 0 0 0-501.44 30.08 30.08 0 0 1 0-60.16 310.88 310.88 0 0 1 0 621.76z" /></svg>