<?xml version="1.0" standalone="no"?><!DOCTYPE svg PUBLIC "-//W3C//DTD SVG 1.1//EN" "http://www.w3.org/Graphics/SVG/1.1/DTD/svg11.dtd"><svg fill="currentColor" class="icon"   viewBox="0 0 1024 1024" version="1.1" xmlns="http://www.w3.org/2000/svg"><path d="M942.933333 401.066667c-12.8-8.533333-29.866667-17.066667-46.933333-17.066667h-256V128c0-17.066667-8.533333-34.133333-17.066667-46.933333-12.8-12.8-29.866667-17.066667-46.933333-17.066667H128c-17.066667 0-34.133333 8.533333-46.933333 17.066667s-17.066667 29.866667-17.066667 46.933333v448c0 17.066667 8.533333 34.133333 17.066667 46.933333 12.8 8.533333 29.866667 17.066667 46.933333 17.066667h256v256c0 17.066667 8.533333 34.133333 17.066667 46.933333 12.8 12.8 29.866667 17.066667 46.933333 17.066667H896c17.066667 0 34.133333-8.533333 46.933333-17.066667 12.8-12.8 17.066667-29.866667 17.066667-46.933333V448c0-17.066667-8.533333-34.133333-17.066667-46.933333zM128 576V128h448v256h-128c-17.066667 0-34.133333 8.533333-46.933333 17.066667s-17.066667 29.866667-17.066667 46.933333v128H128z m448-128v128h-128v-128h128zM896 896H448v-256h128c17.066667 0 34.133333-8.533333 46.933333-17.066667 12.8-12.8 17.066667-29.866667 17.066667-46.933333v-128h256V896z" /></svg>