<?xml version="1.0" standalone="no"?><!DOCTYPE svg PUBLIC "-//W3C//DTD SVG 1.1//EN" "http://www.w3.org/Graphics/SVG/1.1/DTD/svg11.dtd"><svg fill="currentColor" class="icon"   viewBox="0 0 1024 1024" version="1.1" xmlns="http://www.w3.org/2000/svg"><path d="M942.08 276.48c-15.36-15.36-30.72-20.48-46.08-20.48H317.44c-15.36 0-30.72 5.12-40.96 20.48-15.36 10.24-20.48 25.6-20.48 40.96v573.44c0 15.36 5.12 30.72 20.48 46.08 10.24 10.24 30.72 20.48 46.08 20.48h573.44c15.36 0 30.72-5.12 46.08-20.48 10.24-10.24 20.48-30.72 20.48-46.08V317.44c0-15.36-10.24-30.72-20.48-40.96z m-46.08 619.52H317.44V317.44h573.44v578.56zM573.44 61.44H128c-15.36 0-30.72 5.12-46.08 20.48-10.24 15.36-20.48 30.72-20.48 46.08v450.56h61.44V128h450.56V61.44z" /></svg>