<?xml version="1.0" standalone="no"?><!DOCTYPE svg PUBLIC "-//W3C//DTD SVG 1.1//EN" "http://www.w3.org/Graphics/SVG/1.1/DTD/svg11.dtd"><svg fill="currentColor" class="icon"   viewBox="0 0 1024 1024" version="1.1" xmlns="http://www.w3.org/2000/svg"><path d="M870.4 71.68H153.6c-46.08 0-81.92 35.84-81.92 81.92v716.8c0 46.08 35.84 81.92 81.92 81.92h716.8c46.08 0 81.92-35.84 81.92-81.92V153.6c0-46.08-35.84-81.92-81.92-81.92z m20.48 798.72c0 10.24-10.24 20.48-20.48 20.48H153.6c-10.24 0-20.48-10.24-20.48-20.48V153.6c0-10.24 10.24-20.48 20.48-20.48h716.8c10.24 0 20.48 10.24 20.48 20.48v716.8zM563.2 307.2H501.76v194.56H307.2V563.2h194.56v194.56H563.2V563.2h194.56V501.76H563.2z" /></svg>