<?xml version="1.0" standalone="no"?><!DOCTYPE svg PUBLIC "-//W3C//DTD SVG 1.1//EN" "http://www.w3.org/Graphics/SVG/1.1/DTD/svg11.dtd"><svg fill="currentColor" class="icon"   viewBox="0 0 1024 1024" version="1.1" xmlns="http://www.w3.org/2000/svg"><path d="M896 384c-35.84-87.04-97.28-153.6-174.08-199.68l-30.72 56.32c66.56 40.96 117.76 97.28 148.48 168.96 30.72 71.68 35.84 148.48 15.36 225.28-20.48 76.8-66.56 143.36-128 189.44-61.44 46.08-138.24 71.68-215.04 71.68s-153.6-25.6-215.04-71.68c-61.44-46.08-107.52-112.64-128-189.44-15.36-76.8-10.24-153.6 15.36-225.28 30.72-71.68 81.92-133.12 148.48-168.96l-30.72-56.32c-76.8 46.08-138.24 117.76-174.08 199.68-35.84 87.04-40.96 179.2-15.36 266.24 25.6 87.04 76.8 168.96 148.48 220.16 71.68 56.32 163.84 87.04 250.88 87.04s179.2-30.72 250.88-87.04c71.68-56.32 122.88-133.12 148.48-220.16 25.6-87.04 20.48-179.2-15.36-266.24zM481.28 61.44h61.44V512H481.28z" /></svg>