<?xml version="1.0" standalone="no"?><!DOCTYPE svg PUBLIC "-//W3C//DTD SVG 1.1//EN" "http://www.w3.org/Graphics/SVG/1.1/DTD/svg11.dtd"><svg fill="currentColor" class="icon"   viewBox="0 0 1024 1024" version="1.1" xmlns="http://www.w3.org/2000/svg"><path d="M887.466667 401.066667c51.2 0 93.866667 42.666667 93.866666 93.866666v494.933334l-140.8-140.8H298.666667c-51.2 0-93.866667-42.666667-93.866667-93.866667v-260.266667c0-51.2 42.666667-93.866667 93.866667-93.866666h588.8z m-285.866667 81.066666h-42.666667l-85.333333 243.2h51.2l17.066667-51.2h81.066666l12.8 51.2h51.2l-85.333333-243.2z m-21.333333 59.733334l25.6 89.6h-59.733334l34.133334-89.6zM725.333333 0c51.2 0 93.866667 42.666667 93.866667 93.866667v311.466666c0 51.2-42.666667 93.866667-93.866667 93.866667H183.466667L42.666667 644.266667V93.866667C42.666667 42.666667 85.333333 0 136.533333 0H725.333333z m-281.6 106.666667c-17.066667 0-29.866667 4.266667-42.666666 8.533333-12.8 4.266667-25.6 12.8-34.133334 25.6s-17.066667 21.333333-21.333333 38.4c-4.266667 12.8-8.533333 29.866667-8.533333 51.2v8.533333c0 21.333333 4.266667 38.4 8.533333 51.2 4.266667 12.8 12.8 29.866667 21.333333 38.4 8.533333 12.8 21.333333 21.333333 34.133334 25.6 12.8 4.266667 29.866667 8.533333 42.666666 8.533334 8.533333 0 12.8-4.266667 21.333334-4.266667l55.466666 42.666667 29.866667-29.866667-42.666667-29.866667c12.8-8.533333 25.6-25.6 29.866667-42.666666 8.533333-17.066667 12.8-38.4 12.8-59.733334v-8.533333c0-21.333333-4.266667-38.4-8.533333-51.2-4.266667-12.8-12.8-29.866667-21.333334-38.4-8.533333-12.8-21.333333-21.333333-29.866666-25.6-17.066667-4.266667-29.866667-8.533333-46.933334-8.533333z m0 38.4c17.066667 0 29.866667 4.266667 38.4 21.333333 8.533333 12.8 12.8 29.866667 12.8 59.733333v8.533334c0 25.6-4.266667 46.933333-12.8 59.733333-8.533333 12.8-21.333333 21.333333-38.4 21.333333-8.533333 0-12.8-4.266667-21.333333-4.266666s-12.8-8.533333-17.066667-12.8c-4.266667-8.533333-8.533333-17.066667-8.533333-25.6-4.266667-12.8-4.266667-21.333333-4.266667-34.133334v-12.8c0-25.6 4.266667-42.666667 12.8-59.733333 8.533333-12.8 21.333333-21.333333 38.4-21.333333z" /></svg>