<?xml version="1.0" standalone="no"?><!DOCTYPE svg PUBLIC "-//W3C//DTD SVG 1.1//EN" "http://www.w3.org/Graphics/SVG/1.1/DTD/svg11.dtd"><svg fill="currentColor" class="icon"   viewBox="0 0 1024 1024" version="1.1" xmlns="http://www.w3.org/2000/svg"><path d="M35.2 524.8c0-65.6 12.8-129.6 38.4-190.4s59.2-112 102.4-156.8 92.8-78.4 152-104C385.6 48 448 35.2 512 35.2s126.4 12.8 185.6 38.4c59.2 25.6 110.4 60.8 152 104 43.2 43.2 76.8 96 102.4 156.8 25.6 60.8 38.4 124.8 38.4 190.4 0 107.2-30.4 201.6-91.2 288-60.8 84.8-137.6 144-233.6 177.6-4.8 0-8-1.6-11.2-3.2-3.2-1.6-3.2-3.2-4.8-6.4v-8c0-1.6-1.6-1.6-1.6-3.2v-123.2c0-38.4-12.8-72-40-99.2 72-12.8 124.8-40 160-81.6 35.2-41.6 52.8-92.8 52.8-152 0-56-17.6-104-52.8-144 12.8-40 9.6-83.2-6.4-129.6-17.6-1.6-36.8 1.6-57.6 9.6-20.8 8-35.2 14.4-46.4 20.8-9.6 6.4-19.2 12.8-27.2 17.6-36.8-9.6-76.8-16-120-16-44.8 0-84.8 4.8-120 16-6.4-4.8-14.4-11.2-24-16-9.6-6.4-24-12.8-46.4-22.4-22.4-8-43.2-12.8-60.8-11.2-17.6 46.4-19.2 89.6-4.8 131.2-33.6 40-51.2 89.6-51.2 144 0 59.2 17.6 110.4 52.8 150.4 35.2 41.6 88 68.8 160 81.6-19.2 17.6-32 41.6-36.8 67.2-52.8 12.8-89.6 3.2-110.4-28.8-38.4-59.2-73.6-80-105.6-62.4-3.2 4.8-3.2 9.6 1.6 14.4 6.4 4.8 14.4 11.2 25.6 19.2 11.2 8 19.2 16 25.6 25.6 0 1.6 1.6 6.4 4.8 14.4 3.2 8 4.8 16 8 22.4 3.2 8 8 16 16 24 8 9.6 16 16 27.2 22.4 9.6 6.4 24 11.2 43.2 12.8 17.6 3.2 38.4 3.2 60.8 0v100.8c0 1.6-1.6 3.2-1.6 4.8l-3.2 3.2c-1.6 1.6-3.2 1.6-6.4 1.6s-6.4 0-9.6-1.6c-94.4-33.6-171.2-92.8-230.4-177.6S35.2 630.4 35.2 524.8z" /></svg>