<?xml version="1.0" standalone="no"?><!DOCTYPE svg PUBLIC "-//W3C//DTD SVG 1.1//EN" "http://www.w3.org/Graphics/SVG/1.1/DTD/svg11.dtd"><svg fill="currentColor" class="icon"   viewBox="0 0 1024 1024" version="1.1" xmlns="http://www.w3.org/2000/svg"><path d="M829.44 194.56c-81.92-81.92-199.68-133.12-317.44-133.12-87.04 0-174.08 25.6-250.88 76.8-71.68 51.2-133.12 117.76-163.84 199.68-30.72 87.04-40.96 174.08-25.6 261.12 15.36 87.04 61.44 168.96 122.88 230.4 61.44 61.44 143.36 107.52 230.4 122.88s179.2 10.24 261.12-25.6c81.92-35.84 153.6-92.16 199.68-163.84 51.2-71.68 76.8-158.72 76.8-250.88 0-117.76-51.2-230.4-133.12-317.44z m-46.08 588.8c-71.68 71.68-168.96 112.64-271.36 112.64-76.8 0-148.48-20.48-215.04-66.56-61.44-40.96-112.64-102.4-143.36-174.08-25.6-66.56-30.72-143.36-20.48-220.16 15.36-76.8 51.2-143.36 107.52-194.56s122.88-92.16 194.56-107.52c76.8-15.36 153.6-5.12 220.16 20.48 71.68 30.72 128 76.8 174.08 143.36 40.96 61.44 66.56 138.24 66.56 215.04 0 102.4-40.96 199.68-112.64 271.36zM512 752.64m-46.08 0a46.08 46.08 0 1 0 92.16 0 46.08 46.08 0 1 0-92.16 0ZM542.72 256h-46.08c-20.48 0-35.84 5.12-56.32 10.24s-30.72 20.48-46.08 30.72c-15.36 15.36-25.6 30.72-30.72 46.08s-10.24 35.84-10.24 56.32v15.36h61.44v-15.36c0-20.48 10.24-40.96 25.6-56.32s35.84-25.6 56.32-25.6h46.08c20.48 0 40.96 10.24 56.32 25.6 15.36 15.36 25.6 35.84 25.6 56.32 0 20.48-10.24 40.96-25.6 56.32-15.36 15.36-35.84 25.6-56.32 25.6H481.28v143.36h61.44v-81.92c35.84 0 76.8-15.36 102.4-40.96s40.96-61.44 40.96-102.4-15.36-76.8-40.96-102.4-61.44-40.96-102.4-40.96z" /></svg>