<?xml version="1.0" standalone="no"?><!DOCTYPE svg PUBLIC "-//W3C//DTD SVG 1.1//EN" "http://www.w3.org/Graphics/SVG/1.1/DTD/svg11.dtd"><svg fill="currentColor" class="icon"   viewBox="0 0 1024 1024" version="1.1" xmlns="http://www.w3.org/2000/svg"><path d="M606.208 846.848c24.9344-44.032 44.8512-104.8576 56.8832-176.128h158.4128a349.3376 349.3376 0 0 1-215.3472 176.128zM202.4448 670.72H360.96c12.032 71.2704 31.9488 132.096 56.9344 176.128a349.3376 349.3376 0 0 1-215.3472-176.128z m215.3472-493.568c-24.9856 44.032-44.9024 104.8064-56.9344 176.128H202.496a349.3376 349.3376 0 0 1 215.3472-176.128z m403.6608 176.128H663.04c-11.9808-71.3216-31.8976-132.096-56.832-176.128a349.3376 349.3376 0 0 1 215.296 176.128zM512 163.84c19.3024 0 65.1776 65.024 88.32 189.44h-176.64C446.7712 228.864 492.6464 163.84 512 163.84z m-334.0288 445.5424A346.112 346.112 0 0 1 163.84 512c0-33.792 5.12-66.3552 14.08-97.28h175.104c-3.072 31.232-4.864 63.6928-4.864 97.28 0 33.5872 1.792 66.048 4.8128 97.28H178.5344l-0.512 0.1024z m237.1072-0.1024A899.7888 899.7888 0 0 1 409.6 512c0-35.328 2.2528-67.1744 5.4784-97.28h193.8432c3.1744 30.1056 5.4784 61.952 5.4784 97.28s-2.304 67.1744-5.4784 97.28H415.0784zM512 860.16c-19.3024 0-65.1776-65.024-88.3712-189.44h176.7424c-23.1936 124.416-69.0688 189.44-88.3712 189.44z m332.1344-250.88h-173.1584c3.072-31.232 4.864-63.6928 4.864-97.28 0-33.5872-1.792-66.048-4.864-97.28h172.1344c1.024 0 1.8432-0.4608 2.816-0.512 9.1136 31.0272 14.2336 63.7952 14.2336 97.792 0 33.8944-5.12 66.6112-14.1824 97.6384-0.6656 0-1.1776-0.3584-1.8432-0.3584zM512 102.4a409.6 409.6 0 1 0 0 819.2 409.6 409.6 0 0 0 0-819.2z" /></svg>