<?xml version="1.0" standalone="no"?><!DOCTYPE svg PUBLIC "-//W3C//DTD SVG 1.1//EN" "http://www.w3.org/Graphics/SVG/1.1/DTD/svg11.dtd"><svg fill="currentColor" class="icon"   viewBox="0 0 1041 1024" version="1.1" xmlns="http://www.w3.org/2000/svg"><path d="M830.040276 817.822897h-129.959724V588.217379a64.900414 64.900414 0 0 0-64.971035-64.988689 64.900414 64.900414 0 0 0-65.006345 64.971034v229.623173H440.143448V427.926069h129.959724v51.976828c21.662897-36.38731 68.890483-60.645517 108.314483-60.645518 83.614897 0 151.622621 68.007724 151.622621 151.622621M288.503172 354.710069a78.388966 78.388966 0 0 1-78.40662-78.424276 78.388966 78.388966 0 0 1 78.40662-78.406621 78.388966 78.388966 0 0 1 78.424276 78.406621 78.388966 78.388966 0 0 1-78.424276 78.424276m64.98869 463.112828h-129.959724V427.926069h129.959724M873.366069 81.337379H180.206345a86.333793 86.333793 0 0 0-86.651586 86.633931v693.17738c0 47.668966 39.000276 86.651586 86.651586 86.651586h693.159724c47.668966 0 86.651586-39.000276 86.651586-86.651586V167.97131a86.616276 86.616276 0 0 0-86.651586-86.633931z" /></svg>