<?xml version="1.0" standalone="no"?><!DOCTYPE svg PUBLIC "-//W3C//DTD SVG 1.1//EN" "http://www.w3.org/Graphics/SVG/1.1/DTD/svg11.dtd"><svg fill="currentColor" class="icon"   viewBox="0 0 1024 1024" version="1.1" xmlns="http://www.w3.org/2000/svg"><path d="M256 245.76h384V307.2H256zM256 460.8h281.6v61.44H256zM256 665.6h194.56v61.44H256zM143.36 128h614.4v317.44H819.2V128c0-15.36-5.12-30.72-20.48-46.08-10.24-10.24-30.72-20.48-46.08-20.48h-614.4c-15.36 0-30.72 5.12-46.08 20.48-10.24 15.36-15.36 30.72-15.36 46.08v768c0 15.36 5.12 30.72 20.48 46.08 10.24 10.24 30.72 20.48 46.08 20.48h245.76v-61.44H143.36V128zM911.36 645.12c-25.6-35.84-61.44-66.56-102.4-81.92-40.96-15.36-87.04-20.48-128-10.24s-81.92 30.72-112.64 61.44c-30.72 30.72-51.2 71.68-61.44 112.64-10.24 40.96-5.12 87.04 10.24 128 15.36 40.96 46.08 76.8 81.92 102.4 35.84 25.6 81.92 35.84 122.88 35.84 61.44 0 117.76-25.6 158.72-66.56s66.56-97.28 66.56-158.72c0-46.08-15.36-87.04-35.84-122.88z m-56.32 209.92c-15.36 25.6-40.96 46.08-71.68 61.44-30.72 10.24-61.44 15.36-92.16 10.24-30.72-5.12-61.44-20.48-81.92-46.08s-35.84-51.2-46.08-81.92c-5.12-30.72-5.12-61.44 10.24-92.16 10.24-30.72 30.72-56.32 61.44-71.68 25.6-15.36 56.32-25.6 87.04-25.6 40.96 0 81.92 15.36 112.64 46.08s46.08 71.68 46.08 112.64c0 30.72-5.12 61.44-25.6 87.04zM757.76 670.72h-66.56v112.64l81.92 81.92 46.08-46.08-61.44-66.56z" /></svg>