<?xml version="1.0" standalone="no"?><!DOCTYPE svg PUBLIC "-//W3C//DTD SVG 1.1//EN" "http://www.w3.org/Graphics/SVG/1.1/DTD/svg11.dtd"><svg fill="currentColor" class="icon"   viewBox="0 0 1024 1024" version="1.1" xmlns="http://www.w3.org/2000/svg"><path d="M139.636364 214.109091V172.218182C139.636364 153.6 158.254545 139.636364 172.218182 139.636364h237.381818c4.654545 0 9.309091 0 13.963636 4.654545 102.4 37.236364 195.490909 97.745455 274.618182 172.218182 79.127273 74.472727 139.636364 167.563636 186.181818 265.309091v260.654545c0 23.272727-13.963636 41.890909-41.890909 41.890909h-27.927272c-4.654545-186.181818-69.818182-344.436364-200.145455-474.763636C484.072727 279.272727 325.818182 214.109091 139.636364 214.109091M139.636364 446.836364V325.818182c311.854545-4.654545 572.509091 260.654545 567.854545 558.545454h-125.672727c-4.654545-121.018182-46.545455-223.418182-130.327273-307.2C363.054545 493.381818 260.654545 451.490909 139.636364 446.836364M139.682909 560.546909c18.618182 0 41.890909 0 60.509091 4.654546 134.981818 27.927273 223.418182 111.709091 260.654545 246.690909 4.654545 18.618182 4.654545 41.890909 9.309091 60.509091 0 13.963636 4.654545 13.963636-13.963636 13.963636h-279.272727c-23.272727-4.654545-37.236364-18.618182-37.236364-37.236364v-279.272727V560.546909M661.131636 139.636364h186.181819c23.272727 0 37.236364 13.963636 37.236363 37.236363v181.527273C824.040727 269.963636 749.568 200.145455 661.131636 139.636364" /></svg>