<?xml version="1.0" standalone="no"?><!DOCTYPE svg PUBLIC "-//W3C//DTD SVG 1.1//EN" "http://www.w3.org/Graphics/SVG/1.1/DTD/svg11.dtd"><svg fill="currentColor" class="icon"   viewBox="0 0 1024 1024" version="1.1" xmlns="http://www.w3.org/2000/svg"><path d="M829.44 829.44H194.56V194.56H512V128H194.56c-15.36 0-30.72 5.12-46.08 20.48-15.36 10.24-20.48 25.6-20.48 46.08v640c0 15.36 5.12 30.72 20.48 46.08 10.24 10.24 30.72 20.48 46.08 20.48h640c15.36 0 30.72-5.12 46.08-20.48 10.24-10.24 20.48-30.72 20.48-46.08V512h-61.44v317.44zM829.44 194.56V61.44H768v133.12h-128V256H768v128h61.44V256h133.12V194.56z" /></svg>