<?xml version="1.0" standalone="no"?><!DOCTYPE svg PUBLIC "-//W3C//DTD SVG 1.1//EN" "http://www.w3.org/Graphics/SVG/1.1/DTD/svg11.dtd"><svg class="icon"   viewBox="0 0 1024 1024" version="1.1" xmlns="http://www.w3.org/2000/svg"><path d="M288.723478 932.285217c-73.104696 16.829217-93.406609 43.720348-93.406608 61.350957 0 22.528 75.152696 21.281391 167.045565 21.281391 52.179478 0 100.441043-1.691826 132.407652-6.945391 10.685217-1.78087 21.192348-1.513739 29.740522-1.246609 31.788522 5.921391 82.498783 7.835826 137.527652 7.835826 91.89287 0 167.001043 1.246609 167.001043-21.281391 0-14.60313-20.168348-43.097043-92.827826-60.772174 103.824696-81.341217 98.971826-205.55687 98.971826-205.556869s62.998261 104.314435 87.574261 109.968695c12.466087 2.893913 17.942261-43.853913 7.568696-103.513043-10.418087-59.65913-27.38087-102.4-27.38087-102.4s-23.774609-71.68-37.398261-107.297392c-11.575652-30.497391-38.199652-91.046957-38.199652-91.046956s24.486957-282.267826-167.802435-388.318609c-11.842783-5.298087-22.928696-10.462609-34.281739-14.380522C565.782261 6.945391 472.82087-7.212522 364.454957 43.408696 172.165565 149.414957 196.652522 431.727304 196.652522 431.727304s-26.624 60.549565-38.244174 91.002435c-13.57913 35.661913-37.353739 107.341913-37.353739 107.341913s-16.918261 42.74087-27.38087 102.4c-10.373565 59.65913-4.897391 106.406957 7.568696 103.513044 24.576-5.698783 87.574261-109.968696 87.574261-109.968696s-4.897391 124.972522 99.906782 206.313739z" fill="#333333" /></svg>