<?xml version="1.0" standalone="no"?><!DOCTYPE svg PUBLIC "-//W3C//DTD SVG 1.1//EN" "http://www.w3.org/Graphics/SVG/1.1/DTD/svg11.dtd"><svg fill="currentColor" class="icon"   viewBox="0 0 1024 1024" version="1.1" xmlns="http://www.w3.org/2000/svg"><path d="M384 322.56H215.04C256 256 317.44 209.92 389.12 179.2s148.48-25.6 225.28-5.12 138.24 66.56 184.32 128C844.8 363.52 870.4 435.2 870.4 512h61.44c0-87.04-25.6-168.96-76.8-240.64-51.2-71.68-117.76-122.88-199.68-153.6-81.92-30.72-168.96-30.72-250.88-10.24S245.76 179.2 194.56 245.76V128H128v256h256V322.56zM640 706.56h168.96c-40.96 61.44-102.4 112.64-174.08 138.24s-148.48 25.6-225.28 5.12c-71.68-20.48-138.24-66.56-184.32-128C179.2 660.48 153.6 588.8 153.6 512H97.28c0 87.04 25.6 168.96 76.8 240.64 51.2 71.68 117.76 122.88 199.68 153.6s168.96 30.72 250.88 10.24c81.92-20.48 158.72-71.68 209.92-133.12v117.76h61.44v-256h-256v61.44z" /></svg>