<?xml version="1.0" standalone="no"?><!DOCTYPE svg PUBLIC "-//W3C//DTD SVG 1.1//EN" "http://www.w3.org/Graphics/SVG/1.1/DTD/svg11.dtd"><svg fill="currentColor" class="icon"   viewBox="0 0 1024 1024" version="1.1" xmlns="http://www.w3.org/2000/svg"><path d="M878.933333 145.066667c-12.8-8.533333-29.866667-17.066667-46.933333-17.066667h-640c-17.066667 0-34.133333 8.533333-46.933333 17.066667S128 174.933333 128 192v640c0 17.066667 8.533333 34.133333 17.066667 46.933333 12.8 8.533333 29.866667 17.066667 46.933333 17.066667h640c17.066667 0 34.133333-8.533333 46.933333-17.066667 12.8-12.8 17.066667-29.866667 17.066667-46.933333v-640c0-17.066667-8.533333-34.133333-17.066667-46.933333z m-46.933333 686.933333h-640V384h640v448z m0-512h-640v-128h640v128zM388.266667 742.4l136.533333-132.266667-136.533333-136.533333-42.666667 42.666667 89.6 93.866666-89.6 89.6z" /></svg>