<?xml version="1.0" standalone="no"?><!DOCTYPE svg PUBLIC "-//W3C//DTD SVG 1.1//EN" "http://www.w3.org/Graphics/SVG/1.1/DTD/svg11.dtd"><svg fill="currentColor" class="icon"   viewBox="0 0 1024 1024" version="1.1" xmlns="http://www.w3.org/2000/svg"><path d="M885.76 296.96l-158.72-158.72c-5.12-5.12-5.12-5.12-10.24-5.12H194.56c-15.36 0-30.72 5.12-46.08 20.48-15.36 5.12-20.48 20.48-20.48 40.96v640c0 15.36 5.12 30.72 20.48 46.08 10.24 10.24 30.72 20.48 46.08 20.48h640c15.36 0 30.72-5.12 46.08-20.48s20.48-30.72 20.48-46.08v-512-10.24l-15.36-15.36z m-501.76-102.4h256v128h-256V194.56z m256 634.88h-256v-256h256v256z m66.56 0v-256c0-15.36-5.12-30.72-20.48-46.08-10.24-10.24-30.72-20.48-46.08-20.48h-256c-15.36 0-30.72 5.12-46.08 20.48-10.24 10.24-20.48 30.72-20.48 46.08v256H194.56V194.56h128v128c0 15.36 5.12 30.72 20.48 46.08 10.24 10.24 30.72 20.48 46.08 20.48h256c15.36 0 30.72-5.12 46.08-20.48 10.24-10.24 20.48-30.72 20.48-46.08V204.8l128 128v496.64h-133.12z" /></svg>