<?xml version="1.0" standalone="no"?><!DOCTYPE svg PUBLIC "-//W3C//DTD SVG 1.1//EN" "http://www.w3.org/Graphics/SVG/1.1/DTD/svg11.dtd"><svg fill="currentColor" class="icon"   viewBox="0 0 1024 1024" version="1.1" xmlns="http://www.w3.org/2000/svg"><path d="M686.08 640c56.32-71.68 87.04-158.72 81.92-250.88-5.12-92.16-46.08-174.08-112.64-235.52-66.56-61.44-153.6-92.16-245.76-92.16-92.16 0-179.2 40.96-240.64 102.4-66.56 66.56-102.4 153.6-107.52 245.76 0 92.16 30.72 179.2 92.16 245.76 61.44 66.56 143.36 107.52 235.52 112.64 92.16 5.12 179.2-20.48 250.88-81.92l240.64 240.64 46.08-46.08-240.64-240.64z m-107.52 15.36c-46.08 30.72-102.4 46.08-158.72 46.08-76.8 0-148.48-30.72-204.8-81.92-56.32-56.32-81.92-128-81.92-204.8-5.12-56.32 10.24-112.64 40.96-158.72 35.84-46.08 76.8-81.92 133.12-107.52 51.2-20.48 112.64-25.6 163.84-15.36 56.32 10.24 107.52 40.96 148.48 76.8 40.96 40.96 66.56 92.16 76.8 148.48 10.24 56.32 5.12 112.64-15.36 163.84-20.48 56.32-56.32 102.4-102.4 133.12z" /></svg>