<?xml version="1.0" standalone="no"?><!DOCTYPE svg PUBLIC "-//W3C//DTD SVG 1.1//EN" "http://www.w3.org/Graphics/SVG/1.1/DTD/svg11.dtd"><svg fill="currentColor" class="icon"   viewBox="0 0 1024 1024" version="1.1" xmlns="http://www.w3.org/2000/svg"><path d="M885.76 138.24c-5.12-5.12-10.24-5.12-15.36-10.24h-15.36l-706.56 256c-5.12 0-10.24 5.12-15.36 10.24-5.12 10.24-5.12 15.36-5.12 20.48 0 5.12 0 15.36 5.12 20.48 5.12 5.12 10.24 10.24 15.36 10.24l307.2 122.88 122.88 307.2c0 5.12 5.12 10.24 10.24 15.36 5.12 5.12 10.24 5.12 20.48 5.12 5.12 0 10.24 0 20.48-5.12 5.12-5.12 10.24-10.24 10.24-15.36l256-706.56V153.6c0-5.12-5.12-10.24-10.24-15.36zM128 414.72z" /></svg>