<?xml version="1.0" standalone="no"?><!DOCTYPE svg PUBLIC "-//W3C//DTD SVG 1.1//EN" "http://www.w3.org/Graphics/SVG/1.1/DTD/svg11.dtd"><svg fill="currentColor" class="icon"   viewBox="0 0 1024 1024" version="1.1" xmlns="http://www.w3.org/2000/svg"><path d="M861.866667 537.6v-51.2l59.733333-55.466667c12.8-8.533333 17.066667-25.6 21.333333-38.4 4.266667-12.8 0-29.866667-8.533333-42.666666l-76.8-128c-4.266667-8.533333-12.8-17.066667-21.333333-21.333334-8.533333-4.266667-21.333333-8.533333-29.866667-8.533333-8.533333 0-12.8 0-21.333333 4.266667l-76.8 25.6c-12.8-8.533333-25.6-17.066667-42.666667-25.6l-17.066667-81.066667c-4.266667-12.8-12.8-29.866667-21.333333-38.4-12.8-8.533333-25.6-12.8-42.666667-12.8h-149.333333c-17.066667 0-29.866667 4.266667-42.666667 12.8s-17.066667 25.6-21.333333 38.4l-17.066667 81.066667-38.4 25.6-76.8-29.866667c-8.533333 0-12.8-4.266667-21.333333 0-12.8 0-21.333333 4.266667-29.866667 8.533333s-21.333333 12.8-25.6 25.6L85.333333 354.133333c-8.533333 12.8-8.533333 29.866667-8.533333 42.666667 4.266667 12.8 8.533333 29.866667 21.333333 38.4l59.733334 55.466667v46.933333l-59.733334 55.466667c-12.8 8.533333-17.066667 21.333333-21.333333 38.4-4.266667 17.066667 0 29.866667 8.533333 42.666666l76.8 128c4.266667 8.533333 12.8 17.066667 21.333334 21.333334 8.533333 4.266667 21.333333 8.533333 29.866666 8.533333 8.533333 0 12.8 0 21.333334-4.266667l76.8-25.6c12.8 8.533333 25.6 17.066667 42.666666 25.6l17.066667 81.066667c4.266667 12.8 12.8 29.866667 21.333333 38.4 12.8 8.533333 25.6 12.8 42.666667 12.8h149.333333c17.066667 0 29.866667-4.266667 42.666667-12.8 12.8-8.533333 21.333333-21.333333 21.333333-38.4l17.066667-81.066667c12.8-8.533333 29.866667-17.066667 42.666667-25.6l76.8 25.6c8.533333 4.266667 12.8 4.266667 21.333333 4.266667 12.8 0 21.333333-4.266667 29.866667-8.533333 8.533333-4.266667 17.066667-12.8 21.333333-21.333334l72.533333-128c8.533333-12.8 8.533333-29.866667 8.533334-42.666666-4.266667-12.8-8.533333-29.866667-21.333334-38.4l-55.466666-55.466667zM806.4 768l-110.933333-38.4c-25.6 21.333333-55.466667 38.4-85.333334 51.2l-21.333333 115.2h-149.333333l-21.333334-115.2c-29.866667-12.8-59.733333-29.866667-85.333333-51.2l-115.2 38.4-76.8-128 85.333333-76.8c-4.266667-34.133333-4.266667-68.266667 0-98.133333L140.8 384l76.8-128 110.933333 38.4c25.6-21.333333 55.466667-38.4 85.333334-51.2l21.333333-115.2h149.333333l21.333334 115.2c29.866667 12.8 59.733333 29.866667 85.333333 51.2l115.2-38.4 76.8 128-85.333333 76.8c4.266667 34.133333 4.266667 68.266667 0 98.133333l85.333333 81.066667-76.8 128zM584.533333 332.8c-34.133333-12.8-72.533333-17.066667-110.933333-12.8-38.4 8.533333-72.533333 25.6-98.133333 51.2-25.6 25.6-46.933333 59.733333-51.2 98.133333-8.533333 38.4-4.266667 76.8 12.8 110.933334 12.8 34.133333 38.4 64 72.533333 85.333333s68.266667 34.133333 106.666667 34.133333c25.6 0 51.2-4.266667 72.533333-12.8s42.666667-25.6 64-42.666666c17.066667-17.066667 34.133333-38.4 42.666667-64s12.8-46.933333 12.8-72.533334c0-38.4-12.8-76.8-34.133334-106.666666s-55.466667-51.2-89.6-68.266667z m46.933334 230.4c-4.266667 17.066667-17.066667 29.866667-25.6 42.666667s-25.6 21.333333-42.666667 25.6c-17.066667 4.266667-34.133333 8.533333-51.2 8.533333-17.066667 0-34.133333-4.266667-51.2-8.533333-17.066667-4.266667-29.866667-17.066667-42.666667-25.6-12.8-12.8-21.333333-25.6-25.6-42.666667-4.266667-17.066667-8.533333-34.133333-8.533333-51.2 0-17.066667 4.266667-34.133333 8.533333-51.2 4.266667-17.066667 17.066667-29.866667 25.6-42.666667 12.8-12.8 25.6-21.333333 42.666667-25.6 17.066667-4.266667 34.133333-8.533333 51.2-8.533333 17.066667 0 34.133333 4.266667 51.2 8.533333 17.066667 4.266667 29.866667 17.066667 42.666667 25.6 12.8 12.8 21.333333 25.6 25.6 42.666667 4.266667 17.066667 8.533333 34.133333 8.533333 51.2 0 17.066667-4.266667 34.133333-8.533333 51.2z" /></svg>