<?xml version="1.0" standalone="no"?><!DOCTYPE svg PUBLIC "-//W3C//DTD SVG 1.1//EN" "http://www.w3.org/Graphics/SVG/1.1/DTD/svg11.dtd"><svg fill="currentColor" class="icon"   viewBox="0 0 1024 1024" version="1.1" xmlns="http://www.w3.org/2000/svg"><path d="M421.459253 469.170138l44.153837 131.608297 136.727582-45.817605-44.153837-131.139028-136.727582 46.073568v-0.725232z"  /><path d="M803.059322 599.711917l-66.337407 22.226231 23.036784 68.683746a53.155247 53.155247 0 0 1-52.088729 69.835585 53.752497 53.752497 0 0 1-49.273123-36.218944l-23.036784-68.555764-136.940885 45.774944 22.994123 68.598425a53.283229 53.283229 0 0 1-52.430015 69.920907 54.008461 54.008461 0 0 1-49.315783-36.261606l-22.994123-69.067692-66.593372 22.354213c-6.399107 1.919732-12.158303 2.602303-18.557409 2.602303a54.136443 54.136443 0 0 1-49.273123-36.474908 52.685979 52.685979 0 0 1 33.275356-67.190622l66.55071-22.396874L319.96942 501.805583l-66.166765 22.396874a53.92314 53.92314 0 0 1-18.258784 2.730285 53.197908 53.197908 0 0 1-48.675873-36.176283 53.32589 53.32589 0 0 1 33.957927-67.147961l66.550711-22.18357-23.036785-68.470443a53.240569 53.240569 0 0 1 33.957927-67.190621 52.856622 52.856622 0 0 1 67.14796 33.403337l22.994124 68.598425L524.740837 321.948021l-23.036785-68.470442a53.581854 53.581854 0 0 1 33.659302-67.147961 53.283229 53.283229 0 0 1 67.190621 33.744623l23.036785 69.153014 66.337407-21.756963a53.197908 53.197908 0 0 1 67.190621 33.232695 53.069926 53.069926 0 0 1-33.445998 67.190621l-66.422728 22.354213 44.153837 131.650957 66.166764-22.012927a53.240569 53.240569 0 0 1 67.190621 33.915266c9.385357 28.15607-5.759196 58.231872-33.232695 67.147961l-0.469267-1.237161z m177.937829-228.490773C875.411889 19.568895 722.942505-62.638297 371.119613 42.989626 19.467365 148.532227-62.739827 300.91629 42.888096 652.867164c105.585262 351.73757 257.926664 433.85944 609.877537 328.231518 351.73757-105.585262 433.85944-257.926664 328.231518-609.877538z"  /></svg>