<?xml version="1.0" standalone="no"?><!DOCTYPE svg PUBLIC "-//W3C//DTD SVG 1.1//EN" "http://www.w3.org/Graphics/SVG/1.1/DTD/svg11.dtd"><svg fill="currentColor" class="icon"   viewBox="0 0 1024 1024" version="1.1" xmlns="http://www.w3.org/2000/svg"><path d="M768 665.6h61.44v163.84H768zM665.6 665.6h61.44v163.84H665.6zM102.4 76.8h409.6v194.56c0 15.36 5.12 30.72 20.48 46.08s30.72 20.48 46.08 20.48H768v153.6h61.44V266.24 256c0-5.12-5.12-5.12-5.12-10.24L599.04 20.48c-5.12-5.12-5.12-5.12-10.24-5.12H102.4c-15.36 0-30.72 5.12-46.08 20.48-10.24 10.24-15.36 25.6-15.36 40.96v819.2c0 15.36 5.12 30.72 20.48 46.08 10.24 10.24 30.72 20.48 46.08 20.48h307.2v-61.44H102.4V76.8z m471.04 15.36l179.2 179.2h-179.2V92.16zM742.4 512C614.4 512 512 614.4 512 742.4s102.4 230.4 230.4 230.4 230.4-102.4 230.4-230.4-102.4-230.4-230.4-230.4z m0 399.36c-92.16 0-168.96-76.8-168.96-168.96 0-92.16 76.8-168.96 168.96-168.96 92.16 0 168.96 76.8 168.96 168.96 0 92.16-76.8 168.96-168.96 168.96z" /></svg>