<?xml version="1.0" standalone="no"?><!DOCTYPE svg PUBLIC "-//W3C//DTD SVG 1.1//EN" "http://www.w3.org/Graphics/SVG/1.1/DTD/svg11.dtd"><svg fill="currentColor" class="icon"   viewBox="0 0 1024 1024" version="1.1" xmlns="http://www.w3.org/2000/svg"><path d="M341.333333 51.2h341.333334v64H341.333333zM392.533333 469.333333h64v256H392.533333zM563.2 469.333333h64v256h-64zM844.8 349.866667l72.533333-72.533334-46.933333-46.933333L802.133333 298.666667c-76.8-72.533333-179.2-119.466667-294.4-119.466667-230.4 0-418.133333 187.733333-418.133333 418.133333s187.733333 418.133333 418.133333 418.133334 418.133333-187.733333 418.133334-418.133334c4.266667-93.866667-29.866667-179.2-81.066667-247.466666z m-332.8 597.333333c-192 0-349.866667-157.866667-349.866667-349.866667S320 247.466667 512 247.466667s349.866667 157.866667 349.866667 349.866666-157.866667 349.866667-349.866667 349.866667z" /></svg>