<?xml version="1.0" standalone="no"?><!DOCTYPE svg PUBLIC "-//W3C//DTD SVG 1.1//EN" "http://www.w3.org/Graphics/SVG/1.1/DTD/svg11.dtd"><svg fill="currentColor" class="icon"   viewBox="0 0 1024 1024" version="1.1" xmlns="http://www.w3.org/2000/svg"><path d="M885.76 261.12c-51.2-71.68-117.76-133.12-199.68-163.84-87.04-30.72-174.08-40.96-261.12-25.6-87.04 20.48-168.96 61.44-230.4 122.88-61.44 61.44-102.4 143.36-122.88 230.4-15.36 87.04-10.24 179.2 25.6 261.12 35.84 81.92 92.16 153.6 163.84 199.68 71.68 51.2 158.72 76.8 250.88 76.8 117.76 0 230.4-46.08 317.44-133.12 81.92-81.92 133.12-199.68 133.12-317.44 0-87.04-30.72-174.08-76.8-250.88z m-225.28 604.16c-71.68 30.72-148.48 35.84-220.16 20.48-76.8-15.36-143.36-51.2-194.56-107.52S153.6 655.36 138.24 583.68c-15.36-76.8-5.12-153.6 20.48-220.16 30.72-71.68 76.8-128 143.36-174.08 61.44-40.96 133.12-61.44 209.92-61.44 102.4 0 199.68 40.96 271.36 112.64 71.68 71.68 112.64 168.96 112.64 271.36 0 76.8-20.48 148.48-66.56 215.04-40.96 61.44-102.4 112.64-168.96 138.24zM542.72 225.28H481.28v302.08l179.2 179.2 46.08-46.08-163.84-163.84z" /></svg>