<?xml version="1.0" standalone="no"?><!DOCTYPE svg PUBLIC "-//W3C//DTD SVG 1.1//EN" "http://www.w3.org/Graphics/SVG/1.1/DTD/svg11.dtd"><svg fill="currentColor" class="icon"   viewBox="0 0 1024 1024" version="1.1" xmlns="http://www.w3.org/2000/svg"><path d="M546.133333 546.133333h256v162.133334h-93.866666v251.733333h-4.266667 256v-256h-93.866667v-162.133333c0-17.066667-8.533333-34.133333-17.066666-46.933334-12.8-12.8-29.866667-17.066667-46.933334-17.066666h-256V320H640v-256H384v256h93.866667v162.133333h-256c-17.066667 0-34.133333 8.533333-46.933334 17.066667-12.8 12.8-17.066667 29.866667-17.066666 46.933333v162.133334H64v256h256v-256H221.866667v-162.133334h256M448 256V128h128v128h-128zM256 768v128H128v-128h128z m640 0v128h-128v-128h128z" /></svg>