<?xml version="1.0" standalone="no"?><!DOCTYPE svg PUBLIC "-//W3C//DTD SVG 1.1//EN" "http://www.w3.org/Graphics/SVG/1.1/DTD/svg11.dtd"><svg class="icon"   viewBox="0 0 1024 1024" version="1.1" xmlns="http://www.w3.org/2000/svg"><path d="M121.3 108.5h197.8c17.2 0 33.5 7.7 44.5 21l60.5 73.4c11 13.3 27.3 21 44.5 21h434.2c31.8 0 57.6 25.8 57.6 57.6 0 4.2-0.5 8.4-1.4 12.5l-89.7 403.5c-5.9 26.4-29.3 45.1-56.3 45.1H215.6c-27.9 0-51.7-19.9-56.7-47.3L64.6 176.4c-5.7-31.3 15.1-61.3 46.4-67 3.4-0.6 6.8-0.9 10.3-0.9z" fill="#E3EDF1" /><path d="M124.1 396.7h778.6c31.8 0 57.6 25.8 57.6 57.6 0 4.2-0.5 8.4-1.4 12.5l-89.7 403.5c-5.9 26.4-29.3 45.1-56.3 45.1H213.8c-27 0-50.4-18.8-56.3-45.1L67.8 466.9c-6.9-31.1 12.7-61.9 43.8-68.8 4.1-0.9 8.3-1.4 12.5-1.4z" fill="#C0D0D6" /></svg>