<?xml version="1.0" standalone="no"?><!DOCTYPE svg PUBLIC "-//W3C//DTD SVG 1.1//EN" "http://www.w3.org/Graphics/SVG/1.1/DTD/svg11.dtd"><svg fill="currentColor" class="icon"   viewBox="0 0 1024 1024" version="1.1" xmlns="http://www.w3.org/2000/svg"><path d="M880.64 307.2c0-5.12-5.12-5.12-5.12-10.24l-225.28-225.28c-5.12-5.12-5.12-5.12-10.24-5.12H204.8c-15.36 0-30.72 5.12-46.08 20.48-10.24 10.24-15.36 25.6-15.36 40.96v768c0 15.36 5.12 30.72 20.48 46.08 10.24 10.24 30.72 20.48 46.08 20.48h614.4c15.36 0 30.72-5.12 46.08-20.48s20.48-30.72 20.48-46.08V317.44c-5.12 0-10.24-5.12-10.24-10.24z m-256-163.84l179.2 179.2h-179.2V143.36zM819.2 896H204.8v-768h358.4v194.56c0 15.36 5.12 30.72 20.48 46.08s30.72 20.48 46.08 20.48H819.2v506.88zM409.6 716.8h266.24v61.44H409.6zM363.52 358.4L307.2 414.72l107.52 107.52L307.2 629.76l56.32 56.32 158.72-163.84z" /></svg>