<?xml version="1.0" standalone="no"?><!DOCTYPE svg PUBLIC "-//W3C//DTD SVG 1.1//EN" "http://www.w3.org/Graphics/SVG/1.1/DTD/svg11.dtd"><svg fill="currentColor" class="icon"   viewBox="0 0 1024 1024" version="1.1" xmlns="http://www.w3.org/2000/svg"><path d="M512 61.44c-87.04 0-174.08 25.6-250.88 76.8s-128 122.88-163.84 204.8c-30.72 81.92-40.96 168.96-25.6 256 15.36 87.04 61.44 168.96 122.88 230.4s143.36 107.52 230.4 122.88c87.04 15.36 179.2 10.24 261.12-25.6 81.92-35.84 153.6-92.16 199.68-163.84 51.2-71.68 76.8-158.72 76.8-250.88 0-117.76-46.08-230.4-133.12-317.44-87.04-81.92-199.68-133.12-317.44-133.12z m384 419.84h-194.56c-5.12-117.76-35.84-235.52-87.04-337.92 76.8 20.48 143.36 66.56 194.56 122.88s81.92 133.12 87.04 215.04zM512 896h-20.48c-66.56-107.52-102.4-225.28-107.52-353.28h256c-5.12 122.88-40.96 245.76-107.52 353.28H512zM384 481.28c5.12-122.88 40.96-245.76 107.52-353.28h40.96c66.56 107.52 102.4 225.28 107.52 353.28h-256zM409.6 143.36c-56.32 102.4-87.04 220.16-87.04 337.92H128c5.12-76.8 35.84-153.6 87.04-215.04s117.76-102.4 194.56-122.88z m-281.6 399.36h194.56c5.12 117.76 35.84 235.52 87.04 337.92-76.8-20.48-143.36-66.56-194.56-122.88-46.08-61.44-76.8-133.12-87.04-215.04z m486.4 337.92c56.32-102.4 87.04-220.16 87.04-337.92h194.56c-5.12 76.8-35.84 153.6-87.04 215.04-51.2 61.44-117.76 102.4-194.56 122.88z" /></svg>