<?xml version="1.0" standalone="no"?><!DOCTYPE svg PUBLIC "-//W3C//DTD SVG 1.1//EN" "http://www.w3.org/Graphics/SVG/1.1/DTD/svg11.dtd"><svg fill="currentColor" class="icon"   viewBox="0 0 1031 1024" version="1.1" xmlns="http://www.w3.org/2000/svg"><path d="M765.92 501.92l-16-6.208c-17.984-10.336-4-26.848-4-26.848s8-14.464 12-37.184c5.984-24.8 4-57.824-20-84.672a68.608 68.608 0 0 0-45.984-24.768c-13.984-2.08-28-2.08-40-2.08-56 6.208-111.968 33.056-111.968 33.056-53.984 20.64-40-8.256-32-51.616 0-53.696-16-144.576-159.968-90.88s-267.936 241.632-267.936 241.632C-3.904 578.336 8.096 673.344 8.096 673.344c20 212.704 227.936 270.528 389.888 284.992 167.968 14.464 395.904-64.032 463.872-225.088 69.984-159.008-55.968-223.04-95.968-231.296zM410.016 898.432c-169.952 8.256-305.92-82.624-305.92-206.528 0-121.856 135.968-218.912 305.92-227.168 167.968-10.304 301.92 66.08 301.92 187.936s-133.952 237.504-301.92 245.76zM376.032 545.28c-169.952 20.672-149.952 194.144-149.952 194.144s-1.984 53.696 45.984 80.544c97.984 59.904 199.936 24.8 251.936-47.488 49.984-74.336 20-249.888-147.968-227.168z m-41.984 241.632c-32 4.128-57.984-16.512-57.984-45.44s24-57.824 53.984-61.952c36-4.128 60 18.592 60 47.488s-25.984 55.744-56 59.904z m97.952-92.96c-9.984 8.256-21.984 8.256-28-2.048s-4-26.848 5.984-35.104c13.984-10.336 25.984-8.256 32 2.08s1.984 26.848-10.016 35.104z m415.904-268.448a28.352 28.352 0 0 0 28-24.8v-4.128c20-202.4-151.968-167.264-151.968-167.264-16 0-28 12.384-28 28.896s12 30.976 28 30.976c123.968-30.976 95.968 107.392 95.968 107.392 0 16.512 12 28.896 28 28.896z m-20-353.152c-59.968-16.512-119.968-4.128-137.952 0-2.016 0-2.016 2.048-4 2.048-17.984 6.208-29.984 22.72-29.984 43.36 0 24.768 17.984 43.36 40 43.36 0 0 21.984-2.048 36-8.256 12-4.128 77.984-6.208 137.984 37.184 5.984 4.128 12 8.256 17.984 14.464 16 14.464 31.968 33.056 43.968 55.744 33.984 82.624 14.016 136.32 12 148.704 0 0-8 20.64-8 41.312 0 24.8 17.984 39.232 40 39.232 17.984 0 33.984-2.048 37.984-37.184h2.016c64-241.632-81.984-353.152-187.968-380z"  /></svg>