<?xml version="1.0" standalone="no"?><!DOCTYPE svg PUBLIC "-//W3C//DTD SVG 1.1//EN" "http://www.w3.org/Graphics/SVG/1.1/DTD/svg11.dtd"><svg fill="currentColor" class="icon"   viewBox="0 0 1024 1024" version="1.1" xmlns="http://www.w3.org/2000/svg"><path d="M360.08 651.91V720c0 18 0 18 17.59 17.89 12.18-0.08 12.8-0.61 12.81-12.91q0.06-70.86 0-141.69c0-22.15 1.07-17.89 18.3-18.15 16.17-0.24 16.17-0.06 16-16-0.13-11.2-0.64-11.76-11.94-11.78q-36.34-0.06-72.66 0c-14.54 0-14.54 0-14.51 14.51 0 13.17 0 13.18 13.08 13.22a108.51 108.51 0 0 0 10.89 0c8-0.77 10.64 2.75 10.55 10.54-0.31 25.43-0.11 50.87-0.09 76.3m286.65 12.61h0.11c0 12.71-0.48 25.45 0.1 38.13 1.16 25.47 16.68 39.51 42.49 39.14 26.35-0.37 39.84-14.06 40.76-40.55 0.28-8.23-2.45-11.46-10.87-11.25-16.61 0.4-16-0.53-17.51 15.56-0.74 7.9-4.95 12.16-12.8 12.56s-12.62-4-13.8-12.56c-1.34-9.63-1.21-19.32-1.13-29 0.06-6.72 2.63-9.86 9.79-9.65 12.4 0.36 24.83 0.06 37.24 0.06 4.16 0 8.63-0.39 8.72-5.66 0.27-16.29 2.57-32.82-1.86-48.78-5-17.88-19-25.82-41.25-24.85-23.54 1-39 16.15-39.89 39.62-0.46 12.4-0.08 24.82-0.08 37.24m-153.49 59.87c3.45 13.74 3.45 13.74 18.39 13.48h0.91c7.61 0.8 10.07-2.85 9.89-10.17-0.35-15.42-0.1-30.87-0.1-46.3 0-26.64-0.17-53.28 0.1-79.91 0.08-7.33-2.47-10.85-10-10.32a50.2 50.2 0 0 1-7.26 0c-7.69-0.61-10.83 2.56-10.71 10.54 0.34 24.21 0.13 48.43 0.12 72.64 0 7.87 0.15 15.75-0.08 23.61-0.24 8.14-10 17.61-18 17.1-10.64-0.68-8.62-9.17-8.65-15.78-0.16-30.57-0.07-61.14-0.07-91.71 0-16.66-0.12-16.77-16.54-16.4-0.9 0-1.81 0.07-2.72 0.06-5.51-0.08-8.41 2.28-8.4 8.13 0.09 39.65-0.35 79.3 0.27 118.95 0.29 18.52 13.28 26.16 30.8 19.6a52 52 0 0 0 14.63-8.94c2.23-1.83 3.86-4.82 7.42-4.53m53.42-86.97v89.87c0 4.14-0.6 9.66 5.16 10 6.94 0.41 16.87 4.28 20.27-2.49 4.58-9.15 7.17-3.44 10.88-1 10.09 6.66 21 8.32 31.92 3.32 10.71-4.92 13.19-15.09 13.2-25.93 0-30.56 0.11-61.12-0.14-91.67-0.1-11.75-3.36-22.73-15.09-27.85-11.11-4.85-21.89-2.53-31.45 5.12-1.75 1.4-3.34 4.27-6.08 2.86-2.55-1.32-1.78-4.29-1.79-6.6-0.09-14.82 0-29.65-0.09-44.48-0.06-10.8-0.59-11.22-12.34-11.26-13.71 0-14.41 0.36-14.44 11.15-0.1 29.65 0 59.31 0 89m-29.46-166.93c65.18-0.22 123.5 2 181.54 9.21a256.17 256.17 0 0 1 37.33 7.53c11.67 3.25 19.36 10.4 23.69 21.77 7.6 20 10.45 41 12.66 62 4.09 38.9 5.15 77.88 1.87 116.91-2 24.12-4.81 48.07-10.68 71.69-5 20.26-16.89 31.48-37.45 35.49-28.89 5.63-58 8.78-87.3 10.53C593 808.55 547 810.89 501 809.57c-57.13-1.62-114.33-2.77-170.9-12.4-34.74-5.93-43.09-13-50.16-47.43-10-48.58-11.75-97.78-8.79-147.24 1.37-23 3.25-45.85 7.84-68.42 1.21-5.93 2.94-11.74 4.38-17.61 4.25-17.41 15.25-27.2 32.76-31.11 26.68-6 53.74-8.8 80.87-10.65 42.26-2.87 84.59-5 120.25-4.1M531.93 357.73c0-14.23 0.17-28.45-0.06-42.67-0.14-8.74-4.64-13.31-12.49-13.62-7.67-0.29-12.56 4.35-12.62 13.24q-0.32 43.12 0 86.23c0.08 10.2 4 14 12.7 13.76 8.53-0.18 12.26-4.2 12.42-14.3 0.22-14.22 0-28.44 0-42.66m-62-1.11c0-14.21-0.2-28.42 0-42.62 0.34-20.14 11.27-34.58 30.34-40.33a63.76 63.76 0 0 1 34.89-1c17.93 4.62 30.89 17.62 32.22 36a634.85 634.85 0 0 1-0.16 99.57c-1.64 19.35-15.06 32.35-34 36.26a64.42 64.42 0 0 1-30.5-0.63c-20-5.49-32.24-21.56-32.73-43.76-0.32-14.51-0.06-29-0.07-43.52M407.47 302.29q9.41-36.32 18.8-72.65c3.41-13.22 3.38-13.24 16.87-13.28h13.62c12.42 0.09 12.89 0.64 9.09 12.18-9.94 30.15-19.32 60.5-30.17 90.33-7.47 20.53-11.23 41.11-10.1 62.95 0.85 16.59-0.19 33.28 0.31 49.9 0.25 8.11-3.08 10.86-10.6 10.55-5.43-0.24-10.89 0-16.33 0-11.72-0.15-12.49-0.84-12.52-12.31-0.07-22.39-0.13-44.77 0-67.15a64.86 64.86 0 0 0-3.44-21.35c-12.52-37.57-24.81-75.23-37.13-112.87-3.79-11.58-3.34-12.35 9-12.17 32.68 0.48 24.74-5 33.73 25.72 5.84 20 11 40.11 16.42 60.17h2.37M652.23 428c-7.92 6.2-15.21 11.62-24 14.39-20.33 6.36-34.67-3.61-34.86-24.93-0.31-34.82-0.11-69.63-0.12-104.46 0-10 0.2-20 0-30-0.13-5.82 2.41-8.29 8.07-8.29 31.67 0 26.94-3.44 27.16 24.86 0.26 32.4 0 64.79 0.17 97.19 0 5.93-2.09 13.8 7.16 15.24 7.06 1.09 17.39-8.56 17.92-16.24 0.34-4.82 0.18-9.68 0.18-14.53v-93.55c0-12.17 0.88-13 12.86-13 26.55 0 22.15-1.87 22.28 22.19 0.24 44.5-0.19 89 0.27 133.52 0.1 9.45-3.39 12.59-12.09 11.84-2.4-0.2-4.84 0-7.27 0-14 0-14 0-17.75-14.24"  /><path d="M600.16 665.59c0 12.7 0.13 25.41 0 38.11-0.13 10.32-4 15.06-11.69 15-8.56-0.11-14.74-6-14.79-14.83q-0.23-39.48 0-78.95c0-8.78 5-13.83 13.07-14.06 7.79-0.23 13 4.84 13.27 14 0.35 13.59 0.09 27.22 0.09 40.83zM688.42 646.35c-5-1.38-12.07 2.58-14-6.1-2.26-10.12 1.26-24.12 7.1-27.36 6.75-3.76 15.69-1.56 18.58 5.25a37.47 37.47 0 0 1 2 23c-1.78 7.82-8.91 3.76-13.63 5.19"  /><path d="M511.77 877.73c68.46-1.83 136.95 1.22 205.4-4.2 74.9-5.91 129.3-47.51 148.28-116.42a266.11 266.11 0 0 0 8.71-56.11c5.53-100.1 3.59-200.3 2.87-300.45-0.26-35.56-1.41-71.29-6.27-106.75-10.12-73.8-57.07-123.89-130.38-137.31-18.06-3.31-36.5-6.2-54.78-6.31-126.63-0.81-253.3-5.24-379.83 3-83.35 5.4-140.2 59.06-152 141.25-4.34 30.29-5.82 60.86-6 91.2-0.68 106.47-2.26 213 2.66 319.45 4.64 100.14 63.67 161.26 162.84 168.83 66.17 5.05 132.35 1.89 198.51 3.86M63 646.22V387c4.43-30.74 2.61-61.81 5.44-92.71C78.45 185 149.74 101.15 256 75.67c23-5.5 46.51-6.53 69.7-10.19H699c6.81 0.8 13.61 2 20.44 2.35C841.6 74.34 930.64 152.49 953.19 272c5.47 29 4.55 58.34 8.56 87.33V663.5c-2 24.58-3.43 49.21-6 73.73C944.38 847.66 870.24 929.37 762.09 952c-22 4.62-44.45 5.09-66.52 8.75H329.15c-15.92-1.89-31.86-3.55-47.75-5.69C169.81 940.13 90.7 863 71.7 752.41c-6.06-35.27-4.5-70.91-8.7-106.19"  /></svg>